<svg xmlns="http://www.w3.org/2000/svg" width="497" height="502" style="shape-rendering:geometricPrecision;text-rendering:geometricPrecision;image-rendering:optimizeQuality;fill-rule:evenodd;clip-rule:evenodd"><path style="opacity:.149" fill="#fff6cf" d="M230.5 93.5v1a72.045 72.045 0 0 0-11 1h-1c3.71-1.636 7.71-2.302 12-2z"/><path style="opacity:.486" fill="#fad5b2" d="M230.5 94.5v-1c19.622-1.505 38.622.828 57 7a137.568 137.568 0 0 0-32-5c-8.15-.993-16.483-1.326-25-1z"/><path style="opacity:1" fill="#e1a24b" d="M230.5 94.5c8.517-.326 16.85.007 25 1h-14c-8.732-.09-17.398.576-26 2l4-2a72.045 72.045 0 0 1 11-1z"/><path style="opacity:.859" fill="#f1ca8a" d="M218.5 95.5h1l-4 2h-8c3.376-1.582 7.042-2.249 11-2z"/><path style="opacity:.545" fill="#fddaa6" d="M207.5 97.5c-2.405 1.268-5.072 1.935-8 2 2.338-1.54 5.005-2.206 8-2z"/><path style="opacity:1" fill="#f99f1e" d="M241.5 96.5c-.04 3.38.293 6.714 1 10a40.914 40.914 0 0 1-9-.5 118.21 118.21 0 0 1-21-6.5c9.451-1.733 19.117-2.733 29-3z"/><path style="opacity:1" fill="#f16e2a" d="M256.5 96.5a729.966 729.966 0 0 1 30 5 28.535 28.535 0 0 0-3 7c-6.032 3.647-12.366 3.981-19 1-.418-.722-1.084-1.222-2-1.5a91.743 91.743 0 0 0-15-1.5c2.327-3.984 5.327-7.317 9-10z"/><path style="opacity:.988" fill="#de8150" d="M255.5 96.5v-1a137.568 137.568 0 0 1 32 5v5c-.762 1.762-2.096 2.762-4 3a28.535 28.535 0 0 1 3-7 729.966 729.966 0 0 0-30-5h-1z"/><path style="opacity:1" fill="#f48221" d="M255.5 96.5h1c-3.673 2.683-6.673 6.016-9 10h-3a76.928 76.928 0 0 1-1-10h12z"/><path style="opacity:1" fill="#f59326" d="M241.5 95.5h14v1h-12c.116 3.36.449 6.693 1 10l-13 2h-4a31.116 31.116 0 0 0-11 1c-3.439.406-6.439 1.406-9 3-.667 0-1 .333-1 1-3.916-.475-7.249.525-10 3h-4c-11.689.09-23.356 1.756-35 5a18.473 18.473 0 0 1 2-3.5 114.908 114.908 0 0 1 16-7.5c7.662-3.29 15.662-5.623 24-7 3.881-2.773 8.215-4.106 13-4a118.21 118.21 0 0 0 21 6.5c2.982.498 5.982.665 9 .5a44.869 44.869 0 0 1-1-10v-1z"/><path style="opacity:1" fill="#e9b789" d="M287.5 100.5h3c.259 2.489-.741 4.156-3 5v-5z"/><path style="opacity:1" fill="#df9846" d="M302.5 103.5c-3.826.297-6.826 2.13-9 5.5a19.177 19.177 0 0 1-5 2.5 160.687 160.687 0 0 0 11-10.5c1.989-.519 2.989.314 3 2.5z"/><path style="opacity:.639" fill="#f7d09a" d="M199.5 99.5a256.97 256.97 0 0 1-24 9c7.489-4.166 15.489-7.166 24-9z"/><path style="opacity:1" fill="#dd7a3b" d="M244.5 106.5h3a91.743 91.743 0 0 1 15 1.5c.916.278 1.582.778 2 1.5h-7a195.043 195.043 0 0 0-26-1l13-2z"/><path style="opacity:1" fill="#eb9933" d="M241.5 95.5v1c-9.883.267-19.549 1.267-29 3-4.785-.106-9.119 1.227-13 4-8.338 1.377-16.338 3.71-24 7v-2a256.97 256.97 0 0 0 24-9c2.928-.065 5.595-.732 8-2h8a149.397 149.397 0 0 1 26-2z"/><path style="opacity:.265" fill="#fdddb5" d="M227.5 108.5h4c8.708-.245 17.374.089 26 1v1a151.254 151.254 0 0 0-39 1c.111-.617.444-1.117 1-1.5 2.865-.183 5.531-.683 8-1.5z"/><path style="opacity:1" fill="#f59328" d="M302.5 103.5h1c-.236 3.109.097 6.109 1 9 .17 1.322-.163 2.489-1 3.5a165.7 165.7 0 0 0-22 3.5c-.543-.06-.876-.393-1-1a185.977 185.977 0 0 0 2-3 17.902 17.902 0 0 0 6-4 19.177 19.177 0 0 0 5-2.5c2.174-3.37 5.174-5.203 9-5.5z"/><path style="opacity:.922" fill="#e5a353" d="M227.5 108.5c-2.469.817-5.135 1.317-8 1.5-.556.383-.889.883-1 1.5h-2a29.23 29.23 0 0 0-9 1c2.561-1.594 5.561-2.594 9-3a31.116 31.116 0 0 1 11-1z"/><path style="opacity:.537" fill="#f7d5a4" d="M303.5 103.5h-1c-.011-2.186-1.011-3.019-3-2.5a160.687 160.687 0 0 1-11 10.5 17.902 17.902 0 0 1-6 4 243.508 243.508 0 0 1 16-15.5c3.503-2.033 5.169-.866 5 3.5z"/><path style="opacity:.961" fill="#efc58d" d="M303.5 103.5c1.157 2.773 1.824 5.773 2 9h-1c-.903-2.891-1.236-5.891-1-9z"/><path style="opacity:.176" fill="#fce6ba" d="M216.5 111.5c-3.127 1.081-6.46 1.747-10 2 0-.667.333-1 1-1a29.23 29.23 0 0 1 9-1z"/><path style="opacity:1" fill="#e7a780" d="M283.5 108.5c-1.581 3.087-4.081 4.753-7.5 5a355.88 355.88 0 0 0-18.5-3v-1h7c6.634 2.981 12.968 2.647 19-1z"/><path style="opacity:.914" fill="#f3d4a3" d="M332.5 123.5a179.767 179.767 0 0 0-21-11v7a138.165 138.165 0 0 1-3-8.5c.608-.87 1.441-1.37 2.5-1.5 7.871 3.727 15.038 8.394 21.5 14z"/><path style="opacity:.337" fill="#f8cc9f" d="M206.5 113.5c-3.05 1.601-6.384 2.601-10 3 2.751-2.475 6.084-3.475 10-3z"/><path style="opacity:.929" fill="#e9b779" d="M175.5 108.5v2a114.908 114.908 0 0 0-16 7.5 18.473 18.473 0 0 0-2 3.5h-4a208.311 208.311 0 0 1 5-4.5 101.183 101.183 0 0 1 17-8.5z"/><path style="opacity:1" fill="#e99b69" d="M192.5 116.5h4c-2.39 1.52-5.057 2.52-8 3h-3c-.086-.996.248-1.829 1-2.5a18.453 18.453 0 0 1 6-.5z"/><path style="opacity:.459" fill="#f8cbae" d="M185.5 119.5h3c-2.588 2.125-5.588 3.458-9 4 1.618-1.816 3.618-3.149 6-4z"/><path style="opacity:.667" fill="#f6c09c" d="M282.5 115.5c-.641.982-1.307 1.982-2 3 .124.607.457.94 1 1 5.368 1.931 6.368 5.264 3 10 .198-2.075.365-4.075.5-6a41.594 41.594 0 0 1-7.5-4c1.105-2.111 2.771-3.445 5-4z"/><path style="opacity:.447" fill="#f6c7a4" d="M306.5 116.5c1.424 2.015 2.09 4.348 2 7l-2-3v-4z"/><path style="opacity:.486" fill="#f4c29f" d="M153.5 121.5a27.68 27.68 0 0 1-8 6c1.943-2.971 4.609-4.971 8-6z"/><path style="opacity:1" fill="#e4854d" d="m175.5 124.5-1 2c-1.014 1.174-2.347 1.84-4 2a16.339 16.339 0 0 0-5 2c1.817-1.512 2.817-3.512 3-6h7z"/><path style="opacity:.016" fill="#fee9d7" d="M175.5 124.5h2c-.473 1.406-1.473 2.073-3 2l1-2z"/><path style="opacity:1" fill="#e1773d" d="m306.5 120.5 2 3v5c-2.505-.917-4.838-.917-7 0-2.39 3.189-3.723 6.856-4 11l-2 2a212.73 212.73 0 0 1 3-16c2.619-.268 5.119.065 7.5 1 .495-1.973.662-3.973.5-6z"/><path style="opacity:.98" fill="#efc786" d="M311.5 119.5a154.569 154.569 0 0 1 7 13c-1.871-.359-3.371-1.359-4.5-3a54.874 54.874 0 0 1-2.5-10z"/><path style="opacity:.49" fill="#edcdb7" d="M308.5 123.5c2.025 2.226 2.191 4.559.5 7a24.957 24.957 0 0 0-7.5-2c2.162-.917 4.495-.917 7 0v-5z"/><path style="opacity:.278" fill="#f9cdab" d="M170.5 128.5a26.707 26.707 0 0 1-7 5c-.073-1.527.594-2.527 2-3a16.339 16.339 0 0 1 5-2z"/><path style="opacity:1" fill="#f0722d" d="M304.5 112.5h1c.934 1.068 1.268 2.401 1 4v4a18.453 18.453 0 0 1-.5 6c-2.381-.935-4.881-1.268-7.5-1a212.73 212.73 0 0 0-3 16c-.801 1.542-1.134 3.208-1 5l-4 4a9.108 9.108 0 0 1 1-5c-1.363-1.393-2.196-3.059-2.5-5-1.11-1.537-2.61-2.203-4.5-2a11.988 11.988 0 0 0 1 6l-1 1a6.802 6.802 0 0 1-1.5-3c-.881 2.514-2.381 4.514-4.5 6a78.8 78.8 0 0 0 6-19c3.368-4.736 2.368-8.069-3-10a165.7 165.7 0 0 1 22-3.5c.837-1.011 1.17-2.178 1-3.5z"/><path style="opacity:1" fill="#f59c24" d="M332.5 123.5c1.527-.073 2.527.594 3 2a64.231 64.231 0 0 0 9 10 5.576 5.576 0 0 1-3-1c-.803 4.725-.469 9.391 1 14a3640.14 3640.14 0 0 1-13-10c-1.135-1.713-2.802-2.38-5-2-.644-3.304-2.644-4.638-6-4a154.569 154.569 0 0 0-7-13v-7a179.767 179.767 0 0 1 21 11z"/><path style="opacity:.62" fill="#e9af8b" d="M145.5 127.5a96.014 96.014 0 0 1-8 8.5c1.682 2.169 3.349 4.336 5 6.5l-9-4.5a13.92 13.92 0 0 1 3-4 79.801 79.801 0 0 1 9-6.5z"/><path style="opacity:.31" fill="#fbd0b1" d="M301.5 128.5c-.565 4.037-1.899 7.703-4 11 .277-4.144 1.61-7.811 4-11z"/><path style="opacity:.929" fill="#efc780" d="M318.5 132.5c3.356-.638 5.356.696 6 4-2.353-.84-4.353-2.174-6-4z"/><path style="opacity:1" fill="#ef712d" d="M192.5 116.5a18.453 18.453 0 0 0-6 .5c-.752.671-1.086 1.504-1 2.5-2.382.851-4.382 2.184-6 4-.342.838-1.008 1.172-2 1h-9c-.183 2.488-1.183 4.488-3 6-1.406.473-2.073 1.473-2 3h-1c-1.904.238-3.238 1.238-4 3-1.904.238-3.238 1.238-4 3a81.87 81.87 0 0 0-7.5 4 53.508 53.508 0 0 1-4.5-1 1041.531 1041.531 0 0 0-5-6.5 96.014 96.014 0 0 0 8-8.5 27.68 27.68 0 0 0 8-6h4c11.644-3.244 23.311-4.91 35-5z"/><path style="opacity:.075" fill="#fcd5bd" d="M162.5 133.5c-.762 1.762-2.096 2.762-4 3 .762-1.762 2.096-2.762 4-3z"/><path style="opacity:.478" fill="#f5d0a3" d="M335.5 125.5c8.645 5.645 15.978 12.645 22 21l-2-1c-3.063-4.066-6.729-7.399-11-10a64.231 64.231 0 0 1-9-10z"/><path style="opacity:.075" fill="#fbd5bd" d="M158.5 136.5c-.762 1.762-2.096 2.762-4 3 .762-1.762 2.096-2.762 4-3z"/><path style="opacity:.694" fill="#f2c885" d="M324.5 136.5c2.198-.38 3.865.287 5 2l4 5h-1a983.77 983.77 0 0 1-8-7z"/><path style="opacity:.718" fill="#efb58e" d="M284.5 129.5a78.8 78.8 0 0 1-6 19c-1.209 2.441-2.876 4.441-5 6a631.449 631.449 0 0 0 11-25z"/><path style="opacity:.451" fill="#e6b591" d="M123.5 142.5a84.902 84.902 0 0 1 13 .5c1.442.377 2.442 1.21 3 2.5a82.989 82.989 0 0 0-10-2c-1.833.085-3.166.752-4 2-1.333 0-2-.667-2-2v-1z"/><path style="opacity:1" fill="#e7a684" d="M154.5 139.5c-2.073 3.238-4.906 5.571-8.5 7-1.856-.702-3.023-2.036-3.5-4 1.467.394 2.967.727 4.5 1a81.87 81.87 0 0 1 7.5-4z"/><path style="opacity:.62" fill="#f1bea0" d="M297.5 139.5c-.207 2.741-1.207 5.074-3 7-.134-1.792.199-3.458 1-5l2-2z"/><path style="opacity:.388" fill="#ffead0" d="M332.5 143.5h1c2 1.333 3.667 3 5 5-2.589-.919-4.589-2.586-6-5z"/><path style="opacity:1" fill="#f0842a" d="M344.5 135.5c4.271 2.601 7.937 5.934 11 10v2c-2.463 2.232-4.463 4.898-6 8a5.727 5.727 0 0 1-3 1l-4-5v-3c-1.469-4.609-1.803-9.275-1-14a5.576 5.576 0 0 0 3 1z"/><path style="opacity:1" fill="#f1702b" d="M290.5 150.5a16.339 16.339 0 0 0-2 5c-3.065 2.109-4.731 5.109-5 9h-3v5a110.056 110.056 0 0 0-11-5c1.857-3.058 3.19-6.392 4-10 2.124-1.559 3.791-3.559 5-6 2.119-1.486 3.619-3.486 4.5-6a6.802 6.802 0 0 0 1.5 3l1-1a11.988 11.988 0 0 1-1-6c1.89-.203 3.39.463 4.5 2 .304 1.941 1.137 3.607 2.5 5a9.108 9.108 0 0 0-1 5z"/><path style="opacity:1" fill="#e6a240" d="M329.5 138.5a3640.14 3640.14 0 0 0 13 10v3c-1.105-1.1-2.438-1.767-4-2v-1c-1.333-2-3-3.667-5-5l-4-5z"/><path style="opacity:.439" fill="#b6e9f0" d="M62.5 145.5c-1 1.667-2.333 3-4 4 .333-2.333 1.667-3.667 4-4z"/><path style="opacity:1" fill="#e87332" d="M139.5 145.5c.58 2.249 1.913 3.915 4 5v4c.131.876-.202 1.543-1 2a5.576 5.576 0 0 0-3-1c-.342-.838-1.008-1.172-2-1-2.886-4.561-6.886-7.561-12-9 .834-1.248 2.167-1.915 4-2a82.989 82.989 0 0 1 10 2z"/><path style="opacity:.71" fill="#f2bd9b" d="M139.5 145.5c2.087 1.085 3.42 2.751 4 5-2.087-1.085-3.42-2.751-4-5z"/><path style="opacity:.682" fill="#f1aeb4" d="M357.5 146.5c2.414 1.411 4.081 3.411 5 6-2.414-1.411-4.081-3.411-5-6z"/><path style="opacity:1" fill="#b3835c" d="M125.5 145.5c5.114 1.439 9.114 4.439 12 9a59.325 59.325 0 0 0-11-7l-1-2z"/><path style="opacity:.294" fill="#ffebd1" d="M338.5 149.5c1.562.233 2.895.9 4 2l4 5v1c-3-2.333-5.667-5-8-8z"/><path style="opacity:1" fill="#ea5539" d="M355.5 147.5a126.412 126.412 0 0 0-4 12c-1.676-.683-2.343-2.017-2-4 1.537-3.102 3.537-5.768 6-8z"/><path style="opacity:.043" fill="#c3f4f7" d="M77.5 151.5c2.376 1.012 3.376 2.845 3 5.5.193 2.008-.474 3.508-2 4.5 2.244-7.93-.256-10.264-7.5-7-1.796 1.902-1.963 3.902-.5 6-2.776-3.01-2.442-5.844 1-8.5a18.452 18.452 0 0 1 6-.5z"/><path style="opacity:.522" fill="#f7e4ad" d="M300.5 159.5c-.633-2.634-2.3-4.3-5-5 .011-2.186 1.011-3.019 3-2.5 1.367 2.301 2.034 4.801 2 7.5z"/><path style="opacity:1" fill="#1ba9b6" d="M123.5 143.5c0 1.333.667 2 2 2l1 2a621.124 621.124 0 0 0 3 6 10.305 10.305 0 0 1-1 3c2.785.431 5.452.431 8 0a30.01 30.01 0 0 0-8 7c-3.083-2.557-6.083-2.391-9 .5a64.866 64.866 0 0 0 15 1c.906-1.699 1.239-3.533 1-5.5 1.603-.188 2.937.312 4 1.5a29.86 29.86 0 0 0-3 7 9.62 9.62 0 0 1-4.5 1.5c-4.314-.481-8.814-.647-13.5-.5-2.551.002-4.551.836-6 2.5a303.674 303.674 0 0 1-7-28h18z"/><path style="opacity:.051" fill="#fdefde" d="M143.5 150.5c1.982 2.873 2.315 5.873 1 9 .284-1.915-.049-3.581-1-5v-4z"/><path style="opacity:.89" fill="#ecaa85" d="M294.5 146.5c-1.574 4.82-3.907 9.153-7 13l1-4a16.339 16.339 0 0 1 2-5l4-4z"/><path style="opacity:.569" fill="#ee9ba3" d="M362.5 152.5c1.762.762 2.762 2.096 3 4l-3-2v-2z"/><path style="opacity:1" fill="#33b6c8" d="M83.5 144.5c-1.696 2.688-3.696 5.021-6 7a18.452 18.452 0 0 0-6 .5c-3.442 2.656-3.776 5.49-1 8.5 1 .333 1.667 1 2 2a14.102 14.102 0 0 1-3.5-1 21.5 21.5 0 0 1-5.5 4c-.6 1.4-1.6 2.4-3 3l-2-1c-4-6-4-12 0-18 1.667-1 3-2.333 4-4a123.92 123.92 0 0 1 21-1z"/><path style="opacity:1" fill="#b6936c" d="M143.5 154.5c.951 1.419 1.284 3.085 1 5-2.254-.624-3.921-1.957-5-4a5.576 5.576 0 0 1 3 1c.798-.457 1.131-1.124 1-2z"/><path style="opacity:1" fill="#18b7d5" d="M63.5 165.5c-.617.111-1.117.444-1.5 1-.856-3.214-2.356-6.047-4.5-8.5.834-8.846 5.5-12.179 14-10 1.333.667 1.333 1.333 0 2-1.813-.046-3.48.12-5 .5l-2 8-2-2-1 1.5a18.108 18.108 0 0 0 4 4.5 187.991 187.991 0 0 0-2 3z"/><path style="opacity:.914" fill="#e2b490" d="M273.5 154.5c-.81 3.608-2.143 6.942-4 10v1c-.992.172-1.658-.162-2-1a37.79 37.79 0 0 1 6-10z"/><path style="opacity:.463" fill="#f0a9af" d="M365.5 156.5c1.762.762 2.762 2.096 3 4-1.762-.762-2.762-2.096-3-4z"/><path style="opacity:1" fill="#34aaad" d="M126.5 147.5a59.325 59.325 0 0 1 11 7c.992-.172 1.658.162 2 1 1.079 2.043 2.746 3.376 5 4-.112 6.244-3.112 10.244-9 12h-23c1.449-1.664 3.449-2.498 6-2.5 4.686-.147 9.186.019 13.5.5a9.62 9.62 0 0 0 4.5-1.5 29.86 29.86 0 0 1 3-7c-1.063-1.188-2.397-1.688-4-1.5.239 1.967-.094 3.801-1 5.5a64.866 64.866 0 0 1-15-1c2.917-2.891 5.917-3.057 9-.5a30.01 30.01 0 0 1 8-7c-2.548.431-5.215.431-8 0 .487-.946.82-1.946 1-3a621.124 621.124 0 0 1-3-6z"/><path style="opacity:.357" fill="#fae099" d="M295.5 154.5a8.43 8.43 0 0 1-.5 4 157.284 157.284 0 0 0-4.5 6c.832-3.809 2.499-7.143 5-10z"/><path style="opacity:1" fill="#df7272" d="M349.5 155.5c-.343 1.983.324 3.317 2 4a31.106 31.106 0 0 1 3 5l1 4a105.735 105.735 0 0 1-9-11v-1a5.727 5.727 0 0 0 3-1z"/><path style="opacity:.341" fill="#f4bea0" d="M287.5 159.5c-.25 2.174-1.25 3.841-3 5 .25-2.174 1.25-3.841 3-5z"/><path style="opacity:1" fill="#f9b120" d="M300.5 163.5c.934 1.068 1.268 2.401 1 4h-10c1.069-3.852 3.069-7.185 6-10a289.034 289.034 0 0 0 3 6z"/><path style="opacity:1" fill="#eb213c" d="m355.5 145.5 2 1c.919 2.589 2.586 4.589 5 6v2a99.899 99.899 0 0 1 1.5 8l2-2c.656 2.486 2.156 4.153 4.5 5 .61 1.934 1.61 3.601 3 5 2.115 7.058-.551 10.558-8 10.5-.988-2.167-2.321-4-4-5.5-1.108-4.574-3.442-8.241-7-11a31.106 31.106 0 0 0-3-5 126.412 126.412 0 0 1 4-12v-2z"/><path style="opacity:1" fill="#d02a41" d="m362.5 154.5 3 2c.238 1.904 1.238 3.238 3 4-.073 1.527.594 2.527 2 3v2c-2.344-.847-3.844-2.514-4.5-5l-2 2a99.899 99.899 0 0 0-1.5-8z"/><path style="opacity:.322" fill="#f8afb9" d="M368.5 160.5c1.406.473 2.073 1.473 2 3-1.406-.473-2.073-1.473-2-3z"/><path style="opacity:1" fill="#23a8b0" d="M83.5 144.5h15a304.144 304.144 0 0 0-4 28 299.288 299.288 0 0 1-32-1l-2-3c1.4-.6 2.4-1.6 3-3a21.5 21.5 0 0 0 5.5-4c1.138.489 2.305.822 3.5 1a19.222 19.222 0 0 0 6-1c1.526-.992 2.193-2.492 2-4.5.376-2.655-.624-4.488-3-5.5 2.304-1.979 4.304-4.312 6-7z"/><path style="opacity:1" fill="#6fd0e7" d="M123.5 142.5v1h-18a303.674 303.674 0 0 0 7 28h23c-9.152.994-18.485 1.327-28 1h-13a304.144 304.144 0 0 1 4-28h-15a123.92 123.92 0 0 0-21 1c1.526-1.63 3.526-2.463 6-2.5 18.33-.5 36.664-.667 55-.5z"/><path style="opacity:1" fill="#edb94c" d="M295.5 154.5c2.7.7 4.367 2.366 5 5v4a289.034 289.034 0 0 1-3-6c-2.931 2.815-4.931 6.148-6 10a5.727 5.727 0 0 0-3 1h-1c.526-1.73 1.526-3.064 3-4a157.284 157.284 0 0 1 4.5-6 8.43 8.43 0 0 0 .5-4z"/><path style="opacity:1" fill="#d7814d" d="m288.5 155.5-1 4c-1.75 1.159-2.75 2.826-3 5 .172.992-.162 1.658-1 2-1.406.473-2.073 1.473-2 3-.333 1-1 1.667-2 2-3.924-.964-7.257-2.964-10-6v-1a110.056 110.056 0 0 1 11 5v-5h3c.269-3.891 1.935-6.891 5-9z"/><path style="opacity:.4" fill="#fddaa2" d="M300.5 159.5c1.446 2.754 2.446 5.754 3 9l-2-1c.268-1.599-.066-2.932-1-4v-4z"/><path style="opacity:.278" fill="#fbb9c4" d="M370.5 163.5c1.406.473 2.073 1.473 2 3l-2-1v-2z"/><path style="opacity:.996" fill="#d24d5f" d="m370.5 165.5 2 1c.838.342 1.172 1.008 1 2v2c-1.39-1.399-2.39-3.066-3-5z"/><path style="opacity:.075" fill="#fbd9bf" d="M283.5 166.5c.073 1.527-.594 2.527-2 3-.073-1.527.594-2.527 2-3z"/><path style="opacity:1" fill="#e3621f" d="M291.5 167.5h10c-3.873 1.93-8.206 2.597-13 2v-1a5.727 5.727 0 0 1 3-1z"/><path style="opacity:.031" fill="#cff4f7" d="m58.5 167.5 2 1 2 3c-2.333-.333-3.667-1.667-4-4z"/><path style="opacity:.776" fill="#efa1b0" d="M356.5 170.5c1.946.535 2.946 1.868 3 4-1.474-.936-2.474-2.27-3-4z"/><path style="opacity:1" fill="#d44958" d="M354.5 164.5c3.558 2.759 5.892 6.426 7 11h-2v-1c-.054-2.132-1.054-3.465-3-4-.838-.342-1.172-1.008-1-2l-1-4z"/><path style="opacity:.255" fill="#f4b7ba" d="M373.5 168.5c1.406.473 2.073 1.473 2 3l-2-1v-2z"/><path style="opacity:.392" fill="#baeeed" d="M62.5 171.5a299.288 299.288 0 0 0 32 1h13c-14.16 1.161-28.494 1.327-43 .5-.916-.278-1.583-.778-2-1.5z"/><path style="opacity:.624" fill="#b0e4e7" d="M154.5 169.5c1.905 3.716 3.239 7.716 4 12h-1a60.48 60.48 0 0 1-3-12z"/><path style="opacity:.604" fill="#eeaaa9" d="M303.5 169.5c1.424 2.015 2.09 4.348 2 7-1.424-2.015-2.09-4.348-2-7z"/><path style="opacity:1" fill="#eb4239" d="m301.5 167.5 2 1v1c-.09 2.652.576 4.985 2 7 .557 4.665 1.89 8.998 4 13v2a200.932 200.932 0 0 1-27-11 32.012 32.012 0 0 0 6-11c4.794.597 9.127-.07 13-2z"/><path style="opacity:.6" fill="#f2b5c2" d="M359.5 175.5h2l1 4c-1.474-.936-2.474-2.27-3-4z"/><path style="opacity:1" fill="#28aab4" d="M258.5 193.5a280.073 280.073 0 0 0-19 12c-1-.333-1.667-1-2-2a56.72 56.72 0 0 0 8-10 4226.507 4226.507 0 0 1 13-16 45.558 45.558 0 0 0 10.5-9l1.5.5c-1.771.535-2.104 1.369-1 2.5 2.981-1.763 4.981-1.097 6 2-.97 1.983-1.97 3.983-3 6a3.647 3.647 0 0 1-1.5-1c-2.566 5.611-6.733 10.611-12.5 15z"/><path style="opacity:1" fill="#dc675d" d="M287.5 168.5h1v1a32.012 32.012 0 0 1-6 11c-1.562.233-2.895.9-4 2 2.974-4.649 5.974-9.316 9-14z"/><path style="opacity:.714" fill="#91d0d4" d="M136.5 178.5c-3.045 1.548-6.378 2.548-10 3-.886.825-1.219 1.825-1 3a19.602 19.602 0 0 1-2-3.5c4.153-1.399 8.486-2.232 13-2.5z"/><path style="opacity:1" fill="#5dafb3" d="M267.5 164.5c.342.838 1.008 1.172 2 1 2.743 3.036 6.076 5.036 10 6a10.134 10.134 0 0 1-1.5 4 148.791 148.791 0 0 0-13 16c-4.094 4.602-8.594 8.602-13.5 12v-3h3c-.262-1.478.071-2.811 1-4 1.713-.379 2.713-1.379 3-3 5.767-4.389 9.934-9.389 12.5-15 .414.457.914.791 1.5 1 1.03-2.017 2.03-4.017 3-6-1.019-3.097-3.019-3.763-6-2-1.104-1.131-.771-1.965 1-2.5l-1.5-.5a45.558 45.558 0 0 1-10.5 9 87.978 87.978 0 0 1 9-13z"/><path style="opacity:.722" fill="#eb9f98" d="M305.5 176.5c2.11 4.002 3.443 8.335 4 13-2.11-4.002-3.443-8.335-4-13z"/><path style="opacity:1" fill="#bf3244" d="m373.5 170.5 2 1c1.174 1.014 1.84 2.347 2 4-1.77 1.356-3.103 3.189-4 5.5a36.41 36.41 0 0 1-8 2.5c-.333-1-1-1.667-2-2-.838-.342-1.172-1.008-1-2l-1-4c1.679 1.5 3.012 3.333 4 5.5 7.449.058 10.115-3.442 8-10.5z"/><path style="opacity:1" fill="#46acb6" d="M113.5 178.5c.949-.652 2.115-.986 3.5-1 1.681.108 2.848.775 3.5 2-.492 2.319-1.492 4.319-3 6l-2 1c.389-3.053-.277-5.72-2-8z"/><path style="opacity:1" fill="#95d5e1" d="M120.5 179.5c-.652-1.225-1.819-1.892-3.5-2-1.385.014-2.551.348-3.5 1h-8c-1.135 5.609-3.801 10.276-8 14a65.034 65.034 0 0 1 7-15.5 42.087 42.087 0 0 1 16-1c2.518 1.14 2.518 2.306 0 3.5z"/><path style="opacity:.239" fill="#efbbc3" d="M363.5 181.5c1 .333 1.667 1 2 2l1 2v1c-1.75-1.159-2.75-2.826-3-5z"/><path style="opacity:1" fill="#59c9e8" d="M113.5 178.5c1.723 2.28 2.389 4.947 2 8a160.458 160.458 0 0 0-5 15c-1.25.077-2.083.744-2.5 2a151.232 151.232 0 0 0-2.5 17h-1a2.428 2.428 0 0 0-.5-2 45.266 45.266 0 0 1-11.5 8 616.966 616.966 0 0 1 5-34c4.199-3.724 6.865-8.391 8-14h8z"/><path style="opacity:.529" fill="#bde5ea" d="M158.5 181.5c2.443 5 4.11 10.334 5 16-2.443-5-4.11-10.334-5-16z"/><path style="opacity:.282" fill="#b0e8e7" d="M125.5 184.5c1.238 1.714 1.905 3.714 2 6-1.574-1.602-2.241-3.602-2-6z"/><path style="opacity:.671" fill="#df768b" d="M278.5 182.5c-.58 2.249-1.913 3.915-4 5 .58-2.249 1.913-3.915 4-5z"/><path style="opacity:1" fill="#21a9b4" d="M154.5 169.5a60.48 60.48 0 0 0 3 12 265.025 265.025 0 0 1-26 18l-3-6c-.904-.709-1.237-1.709-1-3-.095-2.286-.762-4.286-2-6-.219-1.175.114-2.175 1-3 3.622-.452 6.955-1.452 10-3 7.52-2.018 12.687-6.685 15.5-14 1.372 1.41 2.205 3.077 2.5 5z"/><path style="opacity:1" fill="#1a8fa5" d="M157.5 181.5h1c.89 5.666 2.557 11 5 16 .361 4.415 1.694 8.415 4 12a19.22 19.22 0 0 0 1 6 54.283 54.283 0 0 0-7-2c.497-7.188-.336-14.188-2.5-21a4.934 4.934 0 0 0-.5 3 72.367 72.367 0 0 1-12-.5 4.457 4.457 0 0 0-2-1.5 31.316 31.316 0 0 0-3 6.5c.529 3.412.529 6.912 0 10.5a21.435 21.435 0 0 0-7-1c.271-1.88-.396-3.213-2-4l-1-6a265.025 265.025 0 0 0 26-18z"/><path style="opacity:1" fill="#ab6a78" d="M366.5 185.5c2.426 2.73 3.759 6.063 4 10-2.125-2.588-3.458-5.588-4-9v-1z"/><path style="opacity:1" fill="#a05565" d="M381.5 183.5c2.092 2.588 3.425 5.588 4 9-2.969-2.12-4.302-5.12-4-9z"/><path style="opacity:1" fill="#168fa8" d="M161.5 213.5c-6.88-.458-13.547-1.458-20-3 .529-3.588.529-7.088 0-10.5a31.316 31.316 0 0 1 3-6.5 4.457 4.457 0 0 1 2 1.5c3.986.499 7.986.666 12 .5a4.934 4.934 0 0 1 .5-3c2.164 6.812 2.997 13.812 2.5 21z"/><path style="opacity:.765" fill="#e98e97" d="M309.5 189.5c2.11 4.002 3.443 8.335 4 13-1.704-3.439-3.038-7.105-4-11v-2z"/><path style="opacity:.886" fill="#a3deeb" d="M117.5 185.5a86.396 86.396 0 0 1-7 16 160.458 160.458 0 0 1 5-15l2-1z"/><path style="opacity:.455" fill="#f2b39e" d="M273.5 192.5c1.424 2.015 2.09 4.348 2 7-1.424-2.015-2.09-4.348-2-7z"/><path style="opacity:1" fill="#db6648" d="M274.5 187.5c-.172.992.162 1.658 1 2 1.664 6.649 3.331 13.316 5 20l-2-1c.054-3.492-.946-6.492-3-9 .09-2.652-.576-4.985-2-7-1.43-1.955-1.097-3.621 1-5z"/><path style="opacity:.475" fill="#cb9ca6" d="M370.5 196.5c1.604.787 2.271 2.12 2 4-1.174-1.014-1.84-2.347-2-4z"/><path style="opacity:.333" fill="#aadfe1" d="m128.5 193.5 3 6 1 6c-2.306-3.585-3.639-7.585-4-12z"/><path style="opacity:.635" fill="#add6e1" d="M163.5 197.5c1.905 3.716 3.239 7.716 4 12-2.306-3.585-3.639-7.585-4-12z"/><path style="opacity:1" fill="#ea2236" d="M282.5 180.5a200.932 200.932 0 0 0 27 11c.962 3.895 2.296 7.561 4 11v4a160.434 160.434 0 0 0 4 17.5 240.024 240.024 0 0 1-6-.5h-2a81.316 81.316 0 0 0-3-2.5 49.703 49.703 0 0 1-12-4 31.284 31.284 0 0 0-10-1.5c-1.171-.845-2.505-1.511-4-2v-2a264.796 264.796 0 0 0 27 6.5 1074.676 1074.676 0 0 0-32-28.5c-.838-.342-1.172-1.008-1-2 2.087-1.085 3.42-2.751 4-5 1.105-1.1 2.438-1.767 4-2z"/><path style="opacity:1" fill="#8f2135" d="M377.5 175.5c1.841 2.349 3.174 5.015 4 8-.302 3.88 1.031 6.88 4 9a31.686 31.686 0 0 1 2 6c.028 3.416 1.028 6.416 3 9a48.652 48.652 0 0 1 3 15v2h-1c-3.3-2.142-6.967-3.475-11-4-.79-.901-1.79-1.568-3-2-.887-3.914-2.22-7.581-4-11-1.424-2.015-2.09-4.348-2-7 .271-1.88-.396-3.213-2-4v-1c-.241-3.937-1.574-7.27-4-10l-1-2a36.41 36.41 0 0 0 8-2.5c.897-2.311 2.23-4.144 4-5.5z"/><path style="opacity:.667" fill="#c4959f" d="M387.5 198.5c1.572 2.715 2.572 5.715 3 9-1.972-2.584-2.972-5.584-3-9z"/><path style="opacity:.753" fill="#de9089" d="M261.5 201.5c.577-1.273 1.243-1.273 2 0a31.71 31.71 0 0 1 2 6 38.496 38.496 0 0 1-4-6z"/><path style="opacity:1" fill="#1990a6" d="M258.5 193.5c-.287 1.621-1.287 2.621-3 3-.929 1.189-1.262 2.522-1 4h-3v3c-3.176.34-5.343 2.006-6.5 5-2.326-.38-4.159-1.38-5.5-3a280.073 280.073 0 0 1 19-12z"/><path style="opacity:.58" fill="#eb9f86" d="M275.5 199.5c2.054 2.508 3.054 5.508 3 9-1.572-2.715-2.572-5.715-3-9z"/><path style="opacity:.804" fill="#eb939f" d="M313.5 202.5c2.776 5.999 4.776 12.333 6 19l-6-15v-4z"/><path style="opacity:1" fill="#f25634" d="M275.5 189.5a1074.676 1074.676 0 0 1 32 28.5 264.796 264.796 0 0 1-27-6.5v-2c-1.669-6.684-3.336-13.351-5-20z"/><path style="opacity:.82" fill="#e48494" d="M261.5 201.5c-2.731 3.734-6.064 6.734-10 9 2.731-3.734 6.064-6.734 10-9z"/><path style="opacity:1" fill="#84d0e3" d="M97.5 192.5a616.966 616.966 0 0 0-5 34c-.79.901-1.79 1.568-3 2h-1c1.141-12.564 4.141-24.564 9-36z"/><path style="opacity:.788" fill="#e78f86" d="m278.5 208.5 2 1v6c-1.424-2.015-2.09-4.348-2-7z"/><path style="opacity:.541" fill="#dea6b1" d="M374.5 207.5c1.78 3.419 3.113 7.086 4 11 .58 4.31.914 8.643 1 13a478.263 478.263 0 0 0-5-24z"/><path style="opacity:.424" fill="#b3e6f2" d="M110.5 201.5a391.59 391.59 0 0 1-5 19 151.232 151.232 0 0 1 2.5-17c.417-1.256 1.25-1.923 2.5-2z"/><path style="opacity:.722" fill="#ec919f" d="M265.5 208.5c1.777 3.005 2.777 6.338 3 10-1.777-3.005-2.777-6.338-3-10z"/><path style="opacity:.651" fill="#aae2ea" d="M167.5 209.5c2.776 5.999 4.776 12.333 6 19l-3-6a21.17 21.17 0 0 0-2-7 19.22 19.22 0 0 1-1-6z"/><path style="opacity:1" fill="#e32447" d="M261.5 201.5a38.496 38.496 0 0 0 4 6v1c.223 3.662 1.223 6.995 3 10 .557 4.665 1.89 8.998 4 13-.09 2.652.576 4.985 2 7a31.6 31.6 0 0 1 .5 8 18.473 18.473 0 0 0-3.5-2 56.507 56.507 0 0 0-10-15c.073-1.527-.594-2.527-2-3 .073-1.527-.594-2.527-2-3-.838-.342-1.172-1.008-1-2-.238-1.904-1.238-3.238-3-4 .073-1.527-.594-2.527-2-3a5.727 5.727 0 0 1-1-3c0-.667.333-1 1-1 3.936-2.266 7.269-5.266 10-9z"/><path style="opacity:1" fill="#26b8d2" d="M132.5 205.5c1.604.787 2.271 2.12 2 4a21.435 21.435 0 0 1 7 1c6.453 1.542 13.12 2.542 20 3a54.283 54.283 0 0 1 7 2 21.17 21.17 0 0 1 2 7 409.33 409.33 0 0 0-21.5 14c-1.44.648-2.94.981-4.5 1v4a379.517 379.517 0 0 1-12-36z"/><path style="opacity:.4" fill="#abe5ef" d="M245.5 193.5a56.72 56.72 0 0 1-8 10c-6.812 7.489-14.479 13.822-23 19a630.727 630.727 0 0 0 31-29z"/><path style="opacity:1" fill="#895b7a" d="M251.5 214.5c1.406.473 2.073 1.473 2 3-1.406-.473-2.073-1.473-2-3z"/><path style="opacity:1" fill="#26acb7" d="M250.5 211.5a5.727 5.727 0 0 0 1 3c-.073 1.527.594 2.527 2 3 .238 1.904 1.238 3.238 3 4-.172.992.162 1.658 1 2-.073 1.527.594 2.527 2 3-.073 1.527.594 2.527 2 3 .03 3.352 1.363 6.018 4 8 .382 3.15 1.716 5.817 4 8-.825.886-1.825 1.219-3 1-.12-4.146-1.62-4.813-4.5-2a96.124 96.124 0 0 0-21.5 0l-2-3a66.227 66.227 0 0 0-2.5-11c-.383-.556-.883-.889-1.5-1-1.011-1.902-1.178-3.902-.5-6a279.76 279.76 0 0 1 16.5-12z"/><path style="opacity:.557" fill="#e4899c" d="M280.5 215.5c2.846 4.876 4.513 10.209 5 16-2.441-4.994-4.107-10.328-5-16z"/><path style="opacity:1" fill="#3faeca" d="M237.5 203.5c.333 1 1 1.667 2 2 1.341 1.62 3.174 2.62 5.5 3 1.157-2.994 3.324-4.66 6.5-5-10.053 10.858-21.72 19.524-35 26-4.097-.603-7.264.731-9.5 4-1.595-.856-2.428-2.189-2.5-4a41.166 41.166 0 0 1 10-7c8.521-5.178 16.188-11.511 23-19z"/><path style="opacity:1" fill="#8a576f" d="M253.5 217.5c1.762.762 2.762 2.096 3 4-1.762-.762-2.762-2.096-3-4z"/><path style="opacity:.765" fill="#ee8a9f" d="M268.5 218.5c2.11 4.002 3.443 8.335 4 13-2.11-4.002-3.443-8.335-4-13z"/><path style="opacity:1" fill="#ed1d44" d="M284.5 215.5c3.41-.043 6.743.457 10 1.5a49.703 49.703 0 0 0 12 4 81.316 81.316 0 0 1 3 2.5 206.865 206.865 0 0 0-8 3 45.59 45.59 0 0 1-9 7 37.138 37.138 0 0 1-4.5-2 34.033 34.033 0 0 1-1.5-8 6.846 6.846 0 0 1 4 1 4.457 4.457 0 0 0 2-1.5c-1.816-1.941-3.816-2.608-6-2-1.655-1.444-2.322-3.278-2-5.5z"/><path style="opacity:1" fill="#ca364e" d="M378.5 218.5c1.21.432 2.21 1.099 3 2-.42 6.145-.42 12.478 0 19l-2-8c-.086-4.357-.42-8.69-1-13z"/><path style="opacity:.788" fill="#e697a3" d="M319.5 221.5c2.11 4.002 3.443 8.335 4 13l-3-6a51.569 51.569 0 0 1-1-7z"/><path style="opacity:1" fill="#885b74" d="M257.5 223.5c1.406.473 2.073 1.473 2 3-1.406-.473-2.073-1.473-2-3z"/><path style="opacity:1" fill="#8f5476" d="M259.5 226.5c1.406.473 2.073 1.473 2 3-1.406-.473-2.073-1.473-2-3z"/><path style="opacity:1" fill="#10a6c8" d="m104.5 220.5-2 13a62.97 62.97 0 0 0-12.5 2 24.939 24.939 0 0 1-.5-7c1.21-.432 2.21-1.099 3-2a45.266 45.266 0 0 0 11.5-8c.464.594.631 1.261.5 2z"/><path style="opacity:.584" fill="#98dfe1" d="M234.5 229.5c.617.111 1.117.444 1.5 1a66.227 66.227 0 0 1 2.5 11c-1.905-3.716-3.239-7.716-4-12z"/><path style="opacity:.875" fill="#95d2e0" d="M173.5 228.5a86.704 86.704 0 0 1 5 14c.432 1.21 1.099 2.21 2 3a81.802 81.802 0 0 0 2 10 128.402 128.402 0 0 1-9-27z"/><path style="opacity:1" fill="#5fb7c4" d="M204.5 229.5c.072 1.811.905 3.144 2.5 4 2.236-3.269 5.403-4.603 9.5-4-4.516 3.427-9.516 6.093-15 8-.522-1.719-1.522-3.052-3-4 1.647-1.826 3.647-3.16 6-4z"/><path style="opacity:.792" fill="#e28494" d="M285.5 232.5c1.808 1.418 2.475 3.418 2 6-1.238-1.714-1.905-3.714-2-6z"/><path style="opacity:1" fill="#08a8ca" d="m170.5 222.5 3 6a128.402 128.402 0 0 0 9 27l2 11a51.22 51.22 0 0 0-2.5-4c-.77 1.098-1.603 1.098-2.5 0a1711.985 1711.985 0 0 0-28-6c-1.549-2.329-2.383-4.996-2.5-8-1.788-2.26-3.288-4.593-4.5-7v-4c1.56-.019 3.06-.352 4.5-1a409.33 409.33 0 0 1 21.5-14z"/><path style="opacity:.753" fill="#e17e92" d="M272.5 231.5c1.424 2.015 2.09 4.348 2 7-1.424-2.015-2.09-4.348-2-7z"/><path style="opacity:.929" fill="#6d96b2" d="M198.5 233.5c1.478.948 2.478 2.281 3 4-1.171.845-2.505 1.511-4 2l1-6z"/><path style="opacity:1" fill="#d82145" d="M280.5 213.5c1.495.489 2.829 1.155 4 2-.322 2.222.345 4.056 2 5.5 2.184-.608 4.184.059 6 2a4.457 4.457 0 0 1-2 1.5 6.846 6.846 0 0 0-4-1 34.033 34.033 0 0 0 1.5 8 37.138 37.138 0 0 0 4.5 2 45.59 45.59 0 0 0 9-7 206.865 206.865 0 0 1 8-3h2a2560.53 2560.53 0 0 0-8 44h-6c0-.667-.333-1-1-1-.904-.709-1.237-1.709-1-3-.452-3.663-.952-7.33-1.5-11-.737-2.096-1.903-3.763-3.5-5 .446-2.51-.22-4.51-2-6-.904-.709-1.237-1.709-1-3 .475-2.582-.192-4.582-2-6v-1c-.487-5.791-2.154-11.124-5-16v-2z"/><path style="opacity:.616" fill="#ea9da8" d="M323.5 234.5c1.424 2.015 2.09 4.348 2 7-1.424-2.015-2.09-4.348-2-7z"/><path style="opacity:1" fill="#a884aa" d="m198.5 233.5-1 6a64.476 64.476 0 0 1-17 6c-.901-.79-1.568-1.79-2-3a134.76 134.76 0 0 0 20-9z"/><path style="opacity:1" fill="#e71d40" d="M381.5 220.5c4.033.525 7.7 1.858 11 4v8a128.507 128.507 0 0 1-.5 16 25.02 25.02 0 0 1-7.5 5 624.355 624.355 0 0 0-2-10h-1v-4c-.42-6.522-.42-12.855 0-19z"/><path style="opacity:1" fill="#89647e" d="M261.5 229.5a56.507 56.507 0 0 1 10 15c-2.694-1.828-4.694-4.161-6-7-2.637-1.982-3.97-4.648-4-8z"/><path style="opacity:.541" fill="#b1ebf1" d="M225.5 239.5c1.424 2.015 2.09 4.348 2 7-1.424-2.015-2.09-4.348-2-7z"/><path style="opacity:.702" fill="#8cd7e3" d="M203.5 241.5c-2.926 2.958-6.593 4.625-11 5 3.336-2.231 7.003-3.897 11-5z"/><path style="opacity:1" fill="#67bdca" d="M225.5 239.5c-.09 2.652.576 4.985 2 7 1.424 2.015 2.09 4.348 2 7-1.56-4.226-4.227-7.559-8-10 .709-.904 1.709-1.237 3-1 .854-5.683-1.48-8.349-7-8 1.946-3.059 4.113-3.392 6.5-1a20.093 20.093 0 0 1 1.5 6z"/><path style="opacity:.678" fill="#de8394" d="M288.5 241.5c1.78 1.49 2.446 3.49 2 6-1.238-1.714-1.905-3.714-2-6z"/><path style="opacity:.088" fill="#bcebf0" d="M104.5 220.5h1a184.804 184.804 0 0 0 0 54l-2-1c-.267-6.338-.6-12.671-1-19v-21l2-13z"/><path style="opacity:.694" fill="#9fdadd" d="M88.5 229.5v8a418.335 418.335 0 0 0 1 34v3c-3.309-14.952-3.642-29.952-1-45z"/><path style="opacity:.647" fill="#eb98a5" d="M393.5 222.5c3.353 14.614 3.686 29.281 1 44 .199-14.02-.134-28.02-1-42v-2z"/><path style="opacity:1" fill="#bb4f69" d="M274.5 238.5c1.704 3.439 3.038 7.105 4 11-3.737.259-6.07-1.407-7-5a18.473 18.473 0 0 1 3.5 2 31.6 31.6 0 0 0-.5-8z"/><path style="opacity:.659" fill="#e18a9a" d="m379.5 231.5 2 8v4c.317 4.202-.017 8.202-1 12v-6a114.269 114.269 0 0 1-1-18z"/><path style="opacity:1" fill="#0da8ca" d="M265.5 237.5c1.306 2.839 3.306 5.172 6 7 .93 3.593 3.263 5.259 7 5v2c.322 2.222-.345 4.056-2 5.5a389.87 389.87 0 0 0-25 15 19.602 19.602 0 0 1-2 3.5 54.86 54.86 0 0 0-2-7 3.647 3.647 0 0 1 1-1.5c-1.191-.698-2.191-1.531-3-2.5.241-2.398-.426-4.398-2-6-.904-.709-1.237-1.709-1-3 .253-3.915-.413-7.581-2-11a96.124 96.124 0 0 1 21.5 0c2.88-2.813 4.38-2.146 4.5 2 1.175.219 2.175-.114 3-1-2.284-2.183-3.618-4.85-4-8z"/><path style="opacity:1" fill="#21acb9" d="M88.5 228.5h1c-.163 2.357.003 4.69.5 7a62.97 62.97 0 0 1 12.5-2v21h-13c.322-5.858-.011-11.525-1-17v-9z"/><path style="opacity:1" fill="#77c6d5" d="M144.5 241.5c1.212 2.407 2.712 4.74 4.5 7 .117 3.004.951 5.671 2.5 8v6c-3.144-6.646-5.477-13.646-7-21z"/><path style="opacity:.827" fill="#8dd5e2" d="m238.5 241.5 2 3c1.587 3.419 2.253 7.085 2 11-1.908-4.403-3.241-9.07-4-14z"/><path style="opacity:.643" fill="#eca3aa" d="M327.5 247.5c1.777 3.005 2.777 6.338 3 10-1.777-3.005-2.777-6.338-3-10z"/><path style="opacity:1" fill="#29b5cc" d="M217.5 234.5c-.381 1.431-1.381 2.264-3 2.5.457.414.791.914 1 1.5a36.167 36.167 0 0 1-8 2.5 4.457 4.457 0 0 1 2 1.5 195.346 195.346 0 0 1-13 19c-1.945-1.807-2.945-4.14-3-7 .29-1.544.956-2.877 2-4-1.556-2.201-2.723-2.201-3.5 0-.579-1.428-.412-2.762.5-4 4.407-.375 8.074-2.042 11-5a68.744 68.744 0 0 1 14-7z"/><path style="opacity:1" fill="#1cb7d1" d="M221.5 243.5c3.773 2.441 6.44 5.774 8 10 2.11 4.002 3.443 8.335 4 13a95.17 95.17 0 0 0 4 15h-4l-4-4c-1.787-1.317-3.454-.984-5 1l-1-2c.86-1.772 2.193-3.105 4-4a19.887 19.887 0 0 1-3.5-4 4.457 4.457 0 0 0-1.5 2 86.578 86.578 0 0 1-13 1.5c1.196.654 1.196 1.154 0 1.5a26.724 26.724 0 0 1-1.5-7 20.499 20.499 0 0 0-3.5 2.5c1.26 1.814 1.26 3.647 0 5.5a10.258 10.258 0 0 1-1.5-4c-.654 1.196-1.154 1.196-1.5 0 .952-3.379.285-3.712-2-1v-1c4.796-10.61 12.129-18.943 22-25z"/><path style="opacity:1" fill="#df4a5d" d="m320.5 228.5 3 6c-.09 2.652.576 4.985 2 7 1.238 1.714 1.905 3.714 2 6 .223 3.662 1.223 6.995 3 10a19.048 19.048 0 0 0 1 6c-.247 1.213-.914 1.88-2 2a24.935 24.935 0 0 0-.5-7 100.262 100.262 0 0 1-5.5-2 7.293 7.293 0 0 0 2-3 20.023 20.023 0 0 0-2.5-5 105.633 105.633 0 0 0-2.5-20z"/><path style="opacity:.98" fill="#cf6271" d="M290.5 247.5c1.597 1.237 2.763 2.904 3.5 5 .548 3.67 1.048 7.337 1.5 11-2.267-5.047-3.934-10.38-5-16z"/><path style="opacity:1" fill="#ec4356" d="m313.5 206.5 6 15a51.569 51.569 0 0 0 1 7 105.633 105.633 0 0 1 2.5 20 20.023 20.023 0 0 1 2.5 5 7.293 7.293 0 0 1-2 3c1.841.73 3.675 1.397 5.5 2 .497 2.31.663 4.643.5 7a18.453 18.453 0 0 0-6 .5c-.556.383-.889.883-1 1.5h-3c-5.51.711-10.843.711-16 0a2560.53 2560.53 0 0 1 8-44c2.075.198 4.075.365 6 .5a160.434 160.434 0 0 1-4-17.5z"/><path style="opacity:1" fill="#1fb7d2" d="M151.5 256.5a1711.985 1711.985 0 0 1 28 6v4c-8.275-.043-16.275.957-24 3l-2-1c-1.238-1.714-1.905-3.714-2-6v-6z"/><path style="opacity:1" fill="#199cb3" d="M217.5 234.5c5.52-.349 7.854 2.317 7 8-1.291-.237-2.291.096-3 1-9.871 6.057-17.204 14.39-22 25-.617.111-1.117.444-1.5 1a46.052 46.052 0 0 0-1.5-8 195.346 195.346 0 0 0 13-19 4.457 4.457 0 0 0-2-1.5 36.167 36.167 0 0 0 8-2.5 3.647 3.647 0 0 0-1-1.5c1.619-.236 2.619-1.069 3-2.5z"/><path style="opacity:.792" fill="#c17282" d="M330.5 257.5c1.037 1.43 1.704 3.097 2 5v4c-1.459-.067-2.792.266-4 1h-6c.111-.617.444-1.117 1-1.5a18.453 18.453 0 0 1 6-.5c1.086-.12 1.753-.787 2-2a19.048 19.048 0 0 1-1-6z"/><path style="opacity:1" fill="#1f8a9d" d="M88.5 237.5c.989 5.475 1.322 11.142 1 17h13c.4 6.329.733 12.662 1 19h-5c-2.338-1.54-5.005-2.206-8-2h-1a418.335 418.335 0 0 1-1-34z"/><path style="opacity:.431" fill="#aee1ee" d="M243.5 258.5c1.574 1.602 2.241 3.602 2 6-1.238-1.714-1.905-3.714-2-6z"/><path style="opacity:1" fill="#d91d44" d="M392.5 232.5c1.176 12.66.342 25.327-2.5 38-1.481-2.564-2.981-2.564-4.5 0 1.32 1.77 2.82 2.103 4.5 1 .162 4.041-.338 8.041-1.5 12a5.576 5.576 0 0 0-3-1 185.977 185.977 0 0 0-2-3c1.604-1.679 2.271-3.679 2-6h-3c-.626-4.908.374-9.408 3-13.5-2.588-5.147-3.588-10.647-3-16.5a624.355 624.355 0 0 1 2 10 25.02 25.02 0 0 0 7.5-5c.499-5.323.666-10.656.5-16z"/><path style="opacity:1" fill="#7ac9d3" d="M192.5 246.5c-.912 1.238-1.079 2.572-.5 4 .777-2.201 1.944-2.201 3.5 0-1.044 1.123-1.71 2.456-2 4 .055 2.86 1.055 5.193 3 7a46.052 46.052 0 0 1 1.5 8c.383-.556.883-.889 1.5-1v1c-.202 2.45.131 4.783 1 7a128.748 128.748 0 0 1 2 11 868.408 868.408 0 0 1-12-38.5c.184-1.376.851-2.209 2-2.5z"/><path style="opacity:1" fill="#1fb7d1" d="M278.5 251.5a218.477 218.477 0 0 1 9 28c.06 2.841.726 5.507 2 8a480.947 480.947 0 0 1-35.5-6c-1.269 1.405-1.769 3.071-1.5 5-.904-.709-1.237-1.709-1-3-.06-2.841-.726-5.507-2-8a19.602 19.602 0 0 0 2-3.5 389.87 389.87 0 0 1 25-15c1.655-1.444 2.322-3.278 2-5.5z"/><path style="opacity:1" fill="#c82648" d="M392.5 224.5h1a552.288 552.288 0 0 1 1 42c-1.822 6.782-3.155 13.782-4 21h-1l-4-5a5.576 5.576 0 0 1 3 1c1.162-3.959 1.662-7.959 1.5-12-1.68 1.103-3.18.77-4.5-1 1.519-2.564 3.019-2.564 4.5 0 2.842-12.673 3.676-25.34 2.5-38v-8z"/><path style="opacity:.784" fill="#9ee2e5" d="M233.5 266.5c2.239 4.716 3.905 9.716 5 15h-1a95.17 95.17 0 0 1-4-15z"/><path style="opacity:1" fill="#717792" d="M297.5 267.5h2c2.307 1.547 4.973 2.213 8 2 4.24-.04 8.24-.706 12-2h9v1h-2a146.726 146.726 0 0 1-25 2c-1.955-.299-3.289-1.299-4-3z"/><path style="opacity:1" fill="#bf4d6a" d="M299.5 267.5h4c5.157.711 10.49.711 16 0-3.76 1.294-7.76 1.96-12 2-3.027.213-5.693-.453-8-2z"/><path style="opacity:1" fill="#16b8d3" d="M229.5 277.5c-1.574 1.602-2.241 3.602-2 6a446.375 446.375 0 0 1-22 4 82.205 82.205 0 0 0-5-11c-.869-2.217-1.202-4.55-1-7 2.285-2.712 2.952-2.379 2 1 .346 1.196.846 1.196 1.5 0a10.258 10.258 0 0 0 1.5 4c1.26-1.853 1.26-3.686 0-5.5a20.499 20.499 0 0 1 3.5-2.5c.186 2.4.686 4.734 1.5 7 1.196-.346 1.196-.846 0-1.5a86.578 86.578 0 0 0 13-1.5 4.457 4.457 0 0 1 1.5-2 19.887 19.887 0 0 0 3.5 4c-1.807.895-3.14 2.228-4 4l1 2c1.546-1.984 3.213-2.317 5-1z"/><path style="opacity:1" fill="#844a67" d="M90.5 272.5v-1c2.995-.206 5.662.46 8 2l-8-1z"/><path style="opacity:.82" fill="#eaa2ae" d="M380.5 249.5v6a105.178 105.178 0 0 1-2 22h-1v-1a1016.235 1016.235 0 0 0 3-27z"/><path style="opacity:1" fill="#6ebac8" d="M296.5 266.5c.667 0 1 .333 1 1 .711 1.701 2.045 2.701 4 3-.418.722-1.084 1.222-2 1.5.944 2.719 1.277 5.552 1 8.5-1.935-4.395-3.269-9.062-4-14z"/><path style="opacity:1" fill="#cc2347" d="M381.5 243.5h1c-.588 5.853.412 11.353 3 16.5-2.626 4.092-3.626 8.592-3 13.5h3c.271 2.321-.396 4.321-2 6a185.977 185.977 0 0 1 2 3h-2c-1.361-2.027-3.027-3.694-5-5a105.178 105.178 0 0 0 2-22c.983-3.798 1.317-7.798 1-12z"/><path style="opacity:.443" fill="#e79eac" d="M89.5 271.5h1v1c-.284 1.915.049 3.581 1 5v6c-1.413-2.719-2.08-5.719-2-9v-3z"/><path style="opacity:.427" fill="#a5e3f2" d="m153.5 268.5 2 1 3 14c-2.239-4.716-3.905-9.716-5-15z"/><path style="opacity:.635" fill="#a6dde7" d="M187.5 271.5a129.359 129.359 0 0 1 7 21 63.312 63.312 0 0 1-4-8 102.904 102.904 0 0 0-3-11v-2z"/><path style="opacity:.349" fill="#9cdeeb" d="M245.5 264.5c.809.969 1.809 1.802 3 2.5a3.647 3.647 0 0 0-1 1.5 54.86 54.86 0 0 1 2 7c1.274 2.493 1.94 5.159 2 8-2.774-5.993-4.774-12.326-6-19z"/><path style="opacity:1" fill="#1aa4c7" d="m326.5 268.5-22 17c-1.278-.282-2.278-.949-3-2-.904-.709-1.237-1.709-1-3 .277-2.948-.056-5.781-1-8.5.916-.278 1.582-.778 2-1.5 8.397.046 16.73-.62 25-2z"/><path style="opacity:1" fill="#b93f58" d="m90.5 272.5 8 1h5l2 1v4c-.927-2.076-2.593-3.243-5-3.5a40.911 40.911 0 0 0-9-.5v3c-.951-1.419-1.284-3.085-1-5z"/><path style="opacity:1" fill="#24aeba" d="M182.5 255.5c2.267 5.047 3.934 10.38 5 16v2c-.945 2.204-1.111 4.538-.5 7a32.367 32.367 0 0 1-4.5-3 11.38 11.38 0 0 0-2 2.5c2.539 1.805 3.539 4.305 3 7.5h-4c.169 4.541-.498 4.874-2 1a6.846 6.846 0 0 0-4-1c-.081-3.013-1.414-5.013-4-6-.333-1-1-1.667-2-2a7900.78 7900.78 0 0 1 16-9c.929-1.189 1.262-2.522 1-4l-2-11z"/><path style="opacity:1" fill="#78c8da" d="M332.5 262.5c2.322 4.988 3.655 10.321 4 16a1661.046 1661.046 0 0 0-31.5 9c-2.756.076-3.923-1.257-3.5-4 .722 1.051 1.722 1.718 3 2a261.79 261.79 0 0 0 18-5.5c-1.333-1.333-1.333-2.667 0-4a29.13 29.13 0 0 1 9 .5v-7c-1.291.237-2.291-.096-3-1v-1c1.208-.734 2.541-1.067 4-1v-4z"/><path style="opacity:.349" fill="#eea6b6" d="M394.5 266.5c-.166 7.348-1.5 14.348-4 21 .845-7.218 2.178-14.218 4-21z"/><path style="opacity:1" fill="#42c2ea" d="M179.5 262.5c.897 1.098 1.73 1.098 2.5 0a51.22 51.22 0 0 1 2.5 4c.262 1.478-.071 2.811-1 4a7900.78 7900.78 0 0 0-16 9c-1.88-.271-3.213.396-4 2a16.339 16.339 0 0 0-5 2l-3-14c7.725-2.043 15.725-3.043 24-3v-4z"/><path style="opacity:1" fill="#826f92" d="M167.5 279.5c1 .333 1.667 1 2 2v1c-1.879-.841-3.879-1.175-6-1 .787-1.604 2.12-2.271 4-2z"/><path style="opacity:1" fill="#57c8e7" d="M326.5 268.5h2c.709.904 1.709 1.237 3 1v7a29.13 29.13 0 0 0-9-.5c-1.333 1.333-1.333 2.667 0 4a261.79 261.79 0 0 1-18 5.5l22-17z"/><path style="opacity:1" fill="#825278" d="M377.5 277.5h1c1.973 1.306 3.639 2.973 5 5l-6-3v-2z"/><path style="opacity:.569" fill="#f3aab0" d="M105.5 276.5c1.268 2.405 1.935 5.072 2 8-1.238-1.714-1.905-3.714-2-6v-2z"/><path style="opacity:.596" fill="#b7e5e9" d="M377.5 276.5v3c-.16 1.653-.826 2.986-2 4 .221-2.567.888-4.901 2-7z"/><path style="opacity:1" fill="#dc2141" d="M105.5 278.5c.095 2.286.762 4.286 2 6-.446 2.51.22 4.51 2 6v1c.27 3.858 1.603 7.191 4 10v4c-.667 0-1-.333-1-1a78.942 78.942 0 0 0-5-9 84.473 84.473 0 0 0-3-14c-2.763-1.284-4.43-.284-5 3a9.108 9.108 0 0 1 1 5h-4c-.817-3.481-2.483-6.481-5-9v-6a40.911 40.911 0 0 1 9 .5c2.407.257 4.073 1.424 5 3.5z"/><path style="opacity:1" fill="#85486d" d="M383.5 282.5h2l4 5c-2.589-.919-4.589-2.586-6-5z"/><path style="opacity:1" fill="#5f8a9b" d="M169.5 281.5c2.586.987 3.919 2.987 4 6l-4-3v-3z"/><path style="opacity:.431" fill="#96d5da" d="M351.5 284.5c-3.329-.285-6.329.382-9 2h-4c4.08-2.725 8.414-3.392 13-2z"/><path style="opacity:.545" fill="#e3cd98" d="M235.5 281.5h3c1.424 2.015 2.09 4.348 2 7-.845-1.171-1.511-2.505-2-4-1.068-.934-2.401-1.268-4-1l1-2z"/><path style="opacity:1" fill="#c9314d" d="M91.5 280.5c2.517 2.519 4.183 5.519 5 9l1 10a63.339 63.339 0 0 0-4-8c.38-2.198-.287-3.865-2-5v-6z"/><path style="opacity:1" fill="#1fb5cd" d="M190.5 284.5a63.312 63.312 0 0 0 4 8v1a38.457 38.457 0 0 0-13 2c1.53-4.723 3.863-9.057 7-13a31.147 31.147 0 0 0 2 2z"/><path style="opacity:.58" fill="#d08699" d="M163.5 281.5a20.987 20.987 0 0 0-3 4.5c.648 1.44.981 2.94 1 4.5h-1c-1.424-2.015-2.09-4.348-2-7a16.339 16.339 0 0 1 5-2z"/><path style="opacity:1" fill="#e42342" d="M163.5 281.5c2.121-.175 4.121.159 6 1v2c.58 2.249 1.913 3.915 4 5-.134 1.792.199 3.458 1 5-.235.597-.735.93-1.5 1a43.623 43.623 0 0 0-10.5-3l-1-2a11.187 11.187 0 0 0-1-4.5 20.987 20.987 0 0 1 3-4.5z"/><path style="opacity:1" fill="#509c7e" d="M233.5 281.5h2l-1 2a172.105 172.105 0 0 0-15 9c.011-1.517.677-2.684 2-3.5 4.419-1.936 8.419-4.436 12-7.5z"/><path style="opacity:.282" fill="#f6cbd3" d="M91.5 286.5c1.713 1.135 2.38 2.802 2 5-1.037-1.43-1.704-3.097-2-5z"/><path style="opacity:.776" fill="#ee9aa2" d="M107.5 284.5c.958 1.802 1.625 3.802 2 6-1.78-1.49-2.446-3.49-2-6z"/><path style="opacity:1" fill="#a04866" d="m169.5 284.5 4 3v2c-2.087-1.085-3.42-2.751-4-5z"/><path style="opacity:1" fill="#35a5b1" d="M187.5 273.5a102.904 102.904 0 0 1 3 11 31.147 31.147 0 0 1-2-2c-3.137 3.943-5.47 8.277-7 13a38.457 38.457 0 0 1 13-2c1.371 2.436 2.371 5.103 3 8-3.537.189-6.87-.477-10-2-1.602-1.574-3.602-2.241-6-2a2.428 2.428 0 0 1-2-.5c-1.659-2.844-3.659-5.344-6-7.5v-2a6.846 6.846 0 0 1 4 1c1.502 3.874 2.169 3.541 2-1h4c.539-3.195-.461-5.695-3-7.5a11.38 11.38 0 0 1 2-2.5 32.367 32.367 0 0 0 4.5 3c-.611-2.462-.445-4.796.5-7z"/><path style="opacity:1" fill="#1b8ea5" d="M289.5 287.5c-3.329 3.952-7.662 6.285-13 7-.798.457-1.131 1.124-1 2-2.398-.241-4.398.426-6 2-1.208.734-2.541 1.067-4 1-2.841.06-5.507.726-8 2-.838-.342-1.172-1.008-1-2-.557-4.665-1.89-8.998-4-13-.269-1.929.231-3.595 1.5-5a480.947 480.947 0 0 0 35.5 6z"/><path style="opacity:.69" fill="#9adceb" d="M375.5 285.5c-.177 4.208-1.51 7.874-4 11 .962-3.895 2.296-7.561 4-11z"/><path style="opacity:1" fill="#27acb5" d="M200.5 276.5a82.205 82.205 0 0 1 5 11 446.375 446.375 0 0 0 22-4c-.241-2.398.426-4.398 2-6l4 4c-3.581 3.064-7.581 5.564-12 7.5-1.323.816-1.989 1.983-2 3.5a80.908 80.908 0 0 0-11 5c-.798.457-1.131 1.124-1 2h-1a79.262 79.262 0 0 1-4-12 128.748 128.748 0 0 0-2-11z"/><path style="opacity:.416" fill="#a1d5dc" d="M252.5 286.5c2.11 4.002 3.443 8.335 4 13-2.11-4.002-3.443-8.335-4-13z"/><path style="opacity:1" fill="#d6a343" d="M234.5 283.5c1.599-.268 2.932.066 4 1-2.563.7-5.063 1.7-7.5 3a41.333 41.333 0 0 1-9.5 7 9.108 9.108 0 0 1-5 1 10.165 10.165 0 0 1 3-3 172.105 172.105 0 0 1 15-9z"/><path style="opacity:.6" fill="#fbddaa" d="M240.5 288.5c2.11 4.002 3.443 8.335 4 13l-4-9v-4z"/><path style="opacity:.992" fill="#66a9b3" d="M287.5 279.5c2.073 3.72 3.239 7.72 3.5 12a84.084 84.084 0 0 1-15.5 5c-.131-.876.202-1.543 1-2 5.338-.715 9.671-3.048 13-7-1.274-2.493-1.94-5.159-2-8z"/><path style="opacity:.439" fill="#f3b7a6" d="M160.5 290.5h1l1 2a33.691 33.691 0 0 1 2 9c-1.704-3.439-3.038-7.105-4-11z"/><path style="opacity:1" fill="#ad4a52" d="M173.5 289.5c2.341 2.156 4.341 4.656 6 7.5a2.428 2.428 0 0 0 2 .5l2 2c-1.792.134-3.458-.199-5-1l-4-4c-.801-1.542-1.134-3.208-1-5z"/><path style="opacity:1" fill="#6acbe1" d="M331.5 288.5a248.352 248.352 0 0 0-4.5 29c2.245-2.292 4.745-2.625 7.5-1-4.994 2.441-10.328 4.107-16 5h-3c2.685-2.436 5.685-4.602 9-6.5a377.167 377.167 0 0 1-5-4.5c2.424-.477 5.09-1.143 8-2a38.822 38.822 0 0 0-2-8.5l2-2a16.086 16.086 0 0 0-5-2.5c-6.565 1.992-13.565 3.325-21 4h-5a356.506 356.506 0 0 1 35-11z"/><path style="opacity:1" fill="#1b8da8" d="M351.5 284.5c1.562.233 2.895.9 4 2a183.497 183.497 0 0 1 2 19 8.43 8.43 0 0 0-4 .5c1.473.71 2.14 1.876 2 3.5h-3a168.466 168.466 0 0 1-5.5-17c-.804-2.646-2.304-4.646-4.5-6 2.671-1.618 5.671-2.285 9-2z"/><path style="opacity:1" fill="#13a5c7" d="m377.5 279.5 6 3c1.411 2.414 3.411 4.081 6 5a62.967 62.967 0 0 1-7 17 121.283 121.283 0 0 0-19 18c-.978-.311-1.645-.978-2-2 4.676-5.688 8.01-12.021 10-19v-5c2.49-3.126 3.823-6.792 4-11v-2c1.174-1.014 1.84-2.347 2-4z"/><path style="opacity:.796" fill="#f0a1a9" d="M109.5 291.5c1.9 3.018 3.233 6.351 4 10-2.397-2.809-3.73-6.142-4-10z"/><path style="opacity:1" fill="#ea2139" d="M112.5 304.5a168.167 168.167 0 0 1-8-1.5 17.341 17.341 0 0 0-7-3.5l-1-10h4a9.108 9.108 0 0 0-1-5c.57-3.284 2.237-4.284 5-3a84.473 84.473 0 0 1 3 14 78.942 78.942 0 0 1 5 9z"/><path style="opacity:1" fill="#f69b24" d="M238.5 284.5c.489 1.495 1.155 2.829 2 4v4a116.21 116.21 0 0 1 2 12c-1.644.214-3.144-.12-4.5-1-3.069 2.946-6.569 4.946-10.5 6-1.014 1.174-2.347 1.84-4 2-3.252-1.7-6.752-3.034-10.5-4-1.376.184-2.209.851-2.5 2h-1a64.934 64.934 0 0 1-.5-9c1.518-.663 2.685-1.663 3.5-3 1.105-1.1 2.438-1.767 4-2a9.108 9.108 0 0 0 5-1 41.333 41.333 0 0 0 9.5-7c2.437-1.3 4.937-2.3 7.5-3z"/><path style="opacity:1" fill="#23a8b0" d="M338.5 286.5h4c2.196 1.354 3.696 3.354 4.5 6a168.466 168.466 0 0 0 5.5 17h3c-4.299 2.435-8.966 4.102-14 5-2.398-.241-4.398.426-6 2h-1c-2.755-1.625-5.255-1.292-7.5 1a248.352 248.352 0 0 1 4.5-29c2.015-1.424 4.348-2.09 7-2z"/><path style="opacity:1" fill="#639d7d" d="M219.5 292.5a10.165 10.165 0 0 0-3 3c-1.562.233-2.895.9-4 2a16.339 16.339 0 0 0-5 2c-.131-.876.202-1.543 1-2a80.908 80.908 0 0 1 11-5z"/><path style="opacity:1" fill="#59caea" d="M315.5 321.5a99.97 99.97 0 0 1-8 2 168.585 168.585 0 0 1-6-24c7.435-.675 14.435-2.008 21-4 1.833.552 3.5 1.385 5 2.5l-2 2a38.822 38.822 0 0 1 2 8.5c-2.91.857-5.576 1.523-8 2 1.626 1.49 3.292 2.99 5 4.5-3.315 1.898-6.315 4.064-9 6.5z"/><path style="opacity:1" fill="#47a7be" d="M355.5 286.5c2.088 1.836 3.421 4.169 4 7a73.314 73.314 0 0 1-1 12c-.238 1.904-1.238 3.238-3 4 .14-1.624-.527-2.79-2-3.5a8.43 8.43 0 0 1 4-.5 183.497 183.497 0 0 0-2-19z"/><path style="opacity:.376" fill="#f1adb2" d="M93.5 291.5a63.339 63.339 0 0 1 4 8v3c-2.101-3.297-3.435-6.963-4-11z"/><path style="opacity:.192" fill="#b6e2e3" d="M275.5 296.5c-1.714 1.238-3.714 1.905-6 2 1.602-1.574 3.602-2.241 6-2z"/><path style="opacity:1" fill="#707b76" d="M181.5 297.5c2.398-.241 4.398.426 6 2h-4l-2-2z"/><path style="opacity:.251" fill="#b1e8f1" d="M359.5 293.5c.66 1.464.993 3.131 1 5 .184 2.705-.483 5.038-2 7a73.314 73.314 0 0 0 1-12z"/><path style="opacity:.855" fill="#6eb2c0" d="M389.5 287.5h1c-1.638 8.919-4.638 17.252-9 25a41.541 41.541 0 0 0 1-8 62.967 62.967 0 0 0 7-17z"/><path style="opacity:.376" fill="#a7d9de" d="M265.5 299.5c-2.15 1.17-4.484 2.17-7 3-.607-.124-.94-.457-1-1 2.493-1.274 5.159-1.94 8-2z"/><path style="opacity:.745" fill="#a6756d" d="M186.5 299.5h1c3.13 1.523 6.463 2.189 10 2 .61.891.943 1.891 1 3-1.32-1.442-2.986-2.108-5-2-2.846-.052-5.18-1.052-7-3z"/><path style="opacity:.612" fill="#ddc691" d="M212.5 297.5c-.815 1.337-1.982 2.337-3.5 3a64.934 64.934 0 0 0 .5 9c-1.777-3.005-2.777-6.338-3-10h1a16.339 16.339 0 0 1 5-2z"/><path style="opacity:.604" fill="#96d6da" d="M296.5 299.5c-5.999 2.776-12.333 4.776-19 6 5.999-2.776 12.333-4.776 19-6z"/><path style="opacity:1" fill="#1eaab4" d="M296.5 299.5h5a168.585 168.585 0 0 0 6 24 38.496 38.496 0 0 1-6 4 119.998 119.998 0 0 0-17 4c-3.195-1.535-5.862-.868-8 2-2.585-.573-3.585-2.239-3-5a30.465 30.465 0 0 1-9-1.5c-1.537-1.11-2.203-2.61-2-4.5-2.504-1.139-5.17-1.806-8-2-.086-.996.248-1.829 1-2.5a129.75 129.75 0 0 1 13-8 238.386 238.386 0 0 0-13 2.5c7.009-3.113 14.343-5.447 22-7 6.667-1.224 13.001-3.224 19-6z"/><path style="opacity:.851" fill="#efa3a3" d="M113.5 301.5c1.565 2.009 2.565 4.343 3 7a10.165 10.165 0 0 1-3-3v-4z"/><path style="opacity:.424" fill="#f7bba7" d="M164.5 301.5c1.574 1.602 2.241 3.602 2 6-1.238-1.714-1.905-3.714-2-6z"/><path style="opacity:1" fill="#e69d38" d="m240.5 292.5 4 9c.273 1.951-.393 3.451-2 4.5a74.353 74.353 0 0 1-15 3.5c3.931-1.054 7.431-3.054 10.5-6 1.356.88 2.856 1.214 4.5 1a116.21 116.21 0 0 0-2-12z"/><path style="opacity:.757" fill="#93d8e2" d="M371.5 297.5v4a40.943 40.943 0 0 1-5 7c.882-4.093 2.549-7.76 5-11z"/><path style="opacity:1" fill="#e95835" d="M162.5 292.5a43.623 43.623 0 0 1 10.5 3c.765-.07 1.265-.403 1.5-1l4 4a6625.117 6625.117 0 0 0-7 16c.429 2.529 1.096 4.862 2 7v1h-2c-.298-5.552-1.964-10.552-5-15 .241-2.398-.426-4.398-2-6a33.691 33.691 0 0 0-2-9z"/><path style="opacity:1" fill="#d67451" d="M193.5 302.5c2.014-.108 3.68.558 5 2 .934 1.068 1.268 2.401 1 4v2a6.547 6.547 0 0 1-3-3 17.907 17.907 0 0 0-3-5z"/><path style="opacity:1" fill="#ea7729" d="M223.5 311.5c-3.802 1.554-7.802 2.554-12 3a20.69 20.69 0 0 0-1-5c.291-1.149 1.124-1.816 2.5-2 3.748.966 7.248 2.3 10.5 4z"/><path style="opacity:.639" fill="#f2c393" d="M244.5 301.5c1.465 2.046 1.132 3.88-1 5.5a1658.297 1658.297 0 0 1-31 9.5c-1.956-1.851-2.956-4.184-3-7h1a20.69 20.69 0 0 1 1 5c4.198-.446 8.198-1.446 12-3 1.653-.16 2.986-.826 4-2a74.353 74.353 0 0 0 15-3.5c1.607-1.049 2.273-2.549 2-4.5z"/><path style="opacity:.682" fill="#f3c196" d="M199.5 308.5a127.633 127.633 0 0 1 6 17 9.82 9.82 0 0 1-3-4 102.904 102.904 0 0 0-3-11v-2z"/><path style="opacity:.345" fill="#f2aba0" d="M97.5 303.5a86.549 86.549 0 0 1 6 11v2c-2.784-3.905-4.784-8.238-6-13z"/><path style="opacity:.361" fill="#afe8ef" d="M366.5 308.5c-.255 2.467-1.255 4.467-3 6 .255-2.467 1.255-4.467 3-6z"/><path style="opacity:1" fill="#ed4139" d="M97.5 299.5a17.341 17.341 0 0 1 7 3.5c2.668.567 5.334 1.067 8 1.5 0 .667.333 1 1 1a10.165 10.165 0 0 0 3 3c1.384 7.157 4.384 13.49 9 19h-15c-.526-5.39-2.859-9.724-7-13a86.549 86.549 0 0 0-6-11v-4z"/><path style="opacity:1" fill="#d93823" d="M178.5 298.5c1.542.801 3.208 1.134 5 1h3c1.82 1.948 4.154 2.948 7 3a17.907 17.907 0 0 1 3 5 123.359 123.359 0 0 0-23 14c-.904-2.138-1.571-4.471-2-7a6625.117 6625.117 0 0 1 7-16z"/><path style="opacity:1" fill="#2b8e9b" d="M254.5 320.5c-1.588-1.613-2.588-3.613-3-6v-1c1.068-.934 2.401-1.268 4-1a238.386 238.386 0 0 1 13-2.5 129.75 129.75 0 0 0-13 8c-.752.671-1.086 1.504-1 2.5z"/><path style="opacity:.584" fill="#eeb4a3" d="M166.5 307.5c3.036 4.448 4.702 9.448 5 15-2.239-4.716-3.905-9.716-5-15z"/><path style="opacity:.137" fill="#bbebec" d="M341.5 314.5c-1.714 1.238-3.714 1.905-6 2 1.602-1.574 3.602-2.241 6-2z"/><path style="opacity:1" fill="#2d7a8d" d="M382.5 304.5a41.541 41.541 0 0 1-1 8c.172.992-.162 1.658-1 2h-3a97.469 97.469 0 0 0-4.5 12l-1-1a12.93 12.93 0 0 0-.5 5v1a79.07 79.07 0 0 1-11-4c.221-2.164 1.221-3.83 3-5a121.283 121.283 0 0 1 19-18z"/><path style="opacity:.188" fill="#fdd1ca" d="M119.5 314.5c1.406.473 2.073 1.473 2 3-1.406-.473-2.073-1.473-2-3z"/><path style="opacity:1" fill="#e17d72" d="M116.5 308.5c1.508 1.681 2.508 3.681 3 6-.073 1.527.594 2.527 2 3a48.22 48.22 0 0 1 6 10h-2c-4.616-5.51-7.616-11.843-9-19z"/><path style="opacity:.647" fill="#f0c69a" d="M251.5 313.5v1c-.667 0-1 .333-1 1a236.561 236.561 0 0 0-33 10h-4a401.448 401.448 0 0 1 38-12z"/><path style="opacity:1" fill="#e07162" d="M103.5 314.5c4.141 3.276 6.474 7.61 7 13l-2-1c-2.174-3.015-3.841-6.349-5-10v-2z"/><path style="opacity:1" fill="#f27328" d="M196.5 307.5a6.547 6.547 0 0 0 3 3 102.904 102.904 0 0 1 3 11c-2.508 1.737-5.508 2.57-9 2.5-6.325.5-12.658.666-19 .5l-1-2v-1a123.359 123.359 0 0 1 23-14z"/><path style="opacity:1" fill="#e98630" d="M250.5 315.5c.801 1.542 1.134 3.208 1 5-2.607-1.542-3.274-1.042-2 1.5-.336 1.03-1.003 1.53-2 1.5 1.008-2.341.008-3.341-3-3a218.86 218.86 0 0 1-14 1.5 57.966 57.966 0 0 1-13 3.5 236.561 236.561 0 0 1 33-10z"/><path style="opacity:1" fill="#6c989f" d="M380.5 314.5c-1.991 5.989-4.991 11.323-9 16a12.93 12.93 0 0 1 .5-5l1 1a97.469 97.469 0 0 1 4.5-12h3z"/><path style="opacity:1" fill="#a68e59" d="M251.5 314.5c.412 2.387 1.412 4.387 3 6l1 2c-1.562-.233-2.895-.9-4-2 .134-1.792-.199-3.458-1-5 0-.667.333-1 1-1z"/><path style="opacity:.353" fill="#ace2eb" d="M315.5 321.5h3a127.683 127.683 0 0 1-17 6 38.496 38.496 0 0 0 6-4 99.97 99.97 0 0 0 8-2z"/><path style="opacity:.471" fill="#f9d9b6" d="M171.5 322.5h1a19.22 19.22 0 0 1 1 6c-1.574-1.602-2.241-3.602-2-6z"/><path style="opacity:1" fill="#f79325" d="M247.5 323.5a92.74 92.74 0 0 1-10 4.5 177.864 177.864 0 0 1-35 19 95.171 95.171 0 0 1-10 7.5h-2a835.698 835.698 0 0 1-6-5c-1.191-3.068-2.858-5.735-5-8a31.116 31.116 0 0 0-1-11c-2.323-1.304-3.656-3.304-4-6 6.342.166 12.675 0 19-.5 3.492.07 6.492-.763 9-2.5a9.82 9.82 0 0 0 3 4v1c2.793 1.246 5.46.913 8-1h4a57.966 57.966 0 0 0 13-3.5c4.684-.35 9.351-.85 14-1.5 3.008-.341 4.008.659 3 3z"/><path style="opacity:.608" fill="#f7d79c" d="M213.5 325.5c-2.54 1.913-5.207 2.246-8 1l8-1z"/><path style="opacity:1" fill="#9d8862" d="M257.5 323.5c2.249.58 3.915 1.913 5 4-2.249-.58-3.915-1.913-5-4z"/><path style="opacity:1" fill="#f0712b" d="M251.5 320.5c1.105 1.1 2.438 1.767 4 2 .342.838 1.008 1.172 2 1 1.085 2.087 2.751 3.42 5 4 .473 1.406 1.473 2.073 3 2 1 1.667 2.333 3 4 4a25.657 25.657 0 0 1-6 6c-6.342-1.062-11.675.605-16 5a19.22 19.22 0 0 0-6 1c-4.43-.926-7.763.407-10 4a19.22 19.22 0 0 0-6 1c-5.567.295-10.901 1.462-16 3.5-5.657.499-11.324.666-17 .5a95.171 95.171 0 0 0 10-7.5 177.864 177.864 0 0 0 35-19 92.74 92.74 0 0 0 10-4.5c.997.03 1.664-.47 2-1.5-1.274-2.542-.607-3.042 2-1.5z"/><path style="opacity:.071" fill="#fde3d1" d="m108.5 326.5 2 1c.734 1.208 1.067 2.541 1 4-1.39-1.399-2.39-3.066-3-5z"/><path style="opacity:1" fill="#4fa6a2" d="M254.5 320.5c2.83.194 5.496.861 8 2-.203 1.89.463 3.39 2 4.5a30.465 30.465 0 0 0 9 1.5c-.585 2.761.415 4.427 3 5 2.138-2.868 4.805-3.535 8-2v1c-2.715 1.572-5.715 2.572-9 3l-4-2h-1c-1.085-2.087-2.751-3.42-5-4-1.527.073-2.527-.594-3-2-1.085-2.087-2.751-3.42-5-4-.992.172-1.658-.162-2-1l-1-2z"/><path style="opacity:1" fill="#eec86c" d="M125.5 327.5h2a45.728 45.728 0 0 1 7 9c-4-2-7-5-9-9z"/><path style="opacity:1" fill="#a48560" d="M265.5 329.5c2.249.58 3.915 1.913 5 4h-1c-1.667-1-3-2.333-4-4z"/><path style="opacity:1" fill="#37b1c1" d="M371.5 301.5c-1.99 6.979-5.324 13.312-10 19 .355 1.022 1.022 1.689 2 2-1.779 1.17-2.779 2.836-3 5a79.07 79.07 0 0 0 11 4 2204.534 2204.534 0 0 1-7 10c-2.583-3.093-3.25-6.427-2-10-2.89-.222-5.557.445-8 2 .431 2.532-.402 4.866-2.5 7a3.647 3.647 0 0 0-1.5-1c-1.291 2.459-3.291 3.959-6 4.5l-12 12c-.667.667-1.333.667-2 0a25.14 25.14 0 0 0 4-4.5c.617-.111 1.117-.444 1.5-1l1-7c.691 4.622 2.191 4.622 4.5 0 3.333-1.333 5.667-3.667 7-7a8258.315 8258.315 0 0 0 15-22c1.745-1.533 2.745-3.533 3-6a40.943 40.943 0 0 0 5-7z"/><path style="opacity:.031" fill="#bceef1" d="M301.5 327.5c-5.4 2.241-11.067 3.908-17 5v-1a119.998 119.998 0 0 1 17-4z"/><path style="opacity:.259" fill="#fde4c2" d="M173.5 330.5c1.604.787 2.271 2.12 2 4-1.174-1.014-1.84-2.347-2-4z"/><path style="opacity:1" fill="#ec973c" d="M172.5 322.5h1l1 2c.344 2.696 1.677 4.696 4 6a31.116 31.116 0 0 1 1 11c-1.045-2.27-2.379-4.27-4-6v-1c.271-1.88-.396-3.213-2-4v-2a19.22 19.22 0 0 0-1-6z"/><path style="opacity:.761" fill="#b6b29a" d="m271.5 333.5 4 2c-1.714 1.238-3.714 1.905-6 2 1.306-.967 1.973-2.301 2-4z"/><path style="opacity:1" fill="#43aeb3" d="M332.5 332.5c3.913.95 6.58 3.283 8 7l1 4c-2.309 4.622-3.809 4.622-4.5 0l-1 7c-.383.556-.883.889-1.5 1 2.068-6.198.068-10.532-6-13-1.452-.802-3.118-1.302-5-1.5.88-1.356 1.214-2.856 1-4.5h8z"/><path style="opacity:1" fill="#e8976f" d="M269.5 333.5h2c-.027 1.699-.694 3.033-2 4-1.714 1.238-3.714 1.905-6 2a25.657 25.657 0 0 0 6-6z"/><path style="opacity:.62" fill="#f5d581" d="M111.5 331.5c1.322-.17 2.489.163 3.5 1l5.5 11c-3.738-3.41-6.738-7.41-9-12z"/><path style="opacity:.659" fill="#fbe6a6" d="M134.5 336.5c4.066 3.063 7.399 6.729 10 11a39.344 39.344 0 0 1-10-11z"/><path style="opacity:1" fill="#7bcdde" d="M332.5 332.5h-8c.214 1.644-.12 3.144-1 4.5 1.882.198 3.548.698 5 1.5-6.596-.238-10.263 2.929-11 9.5 1.187 6.018 4.854 8.852 11 8.5 0 .667-.333 1-1 1a11.988 11.988 0 0 1-6-1c-.963 3.048-2.296 5.714-4 8 .803-.923.97-1.923.5-3-3.051-1.55-5.218-3.883-6.5-7h3a4.934 4.934 0 0 0 .5 3c.654 1.196 1.154 1.196 1.5 0a68.555 68.555 0 0 0-4.5-14 50.464 50.464 0 0 0-.5 10c-3.317-9.561-.317-16.727 9-21.5 4.189-.812 8.189-.645 12 .5z"/><path style="opacity:1" fill="#eeac87" d="M263.5 339.5c-5.074 2.187-10.408 3.854-16 5 4.325-4.395 9.658-6.062 16-5z"/><path style="opacity:.129" fill="#c0f2f5" d="M348.5 336.5c-1.333 3.333-3.667 5.667-7 7l-1-4c.958.453 1.792 1.119 2.5 2a38.47 38.47 0 0 1 5.5-5z"/><path style="opacity:.749" fill="#f2cf98" d="M175.5 335.5c1.621 1.73 2.955 3.73 4 6a49.783 49.783 0 0 0 3 9c-3.967-4.125-6.3-9.125-7-15z"/><path style="opacity:.404" fill="#fbe39f" d="M120.5 343.5c1.548.321 2.215 1.321 2 3-1.406-.473-2.073-1.473-2-3z"/><path style="opacity:1" fill="#28b9d3" d="M364.5 341.5a139.724 139.724 0 0 1-13 15c-2.749-.989-4.749.011-6 3-2.07-.051-3.903.615-5.5 2-3.209-2.91-5.542-2.243-7 2-1.587-1.227-2.921-.894-4 1-.29-2.42-.79-4.754-1.5-7 .667 0 1-.333 1-1l3-4a5.727 5.727 0 0 1 3-1 25.14 25.14 0 0 1-4 4.5c.667.667 1.333.667 2 0l12-12c2.709-.541 4.709-2.041 6-4.5a3.647 3.647 0 0 1 1.5 1c2.098-2.134 2.931-4.468 2.5-7 2.443-1.555 5.11-2.222 8-2-1.25 3.573-.583 6.907 2 10z"/><path style="opacity:1" fill="#f9b11d" d="M110.5 327.5h15c2 4 5 7 9 9a39.344 39.344 0 0 0 10 11l2 1c0 2 1 3 3 3 .233 1.562.9 2.895 2 4-2.082-.124-3.582-1.124-4.5-3-1.11 1.537-2.61 2.203-4.5 2-.084 3.182-1.417 5.515-4 7a4792.753 4792.753 0 0 0-12-11c-.333-2.333-1.667-3.667-4-4 .215-1.679-.452-2.679-2-3l-5.5-11c-1.011-.837-2.178-1.17-3.5-1 .067-1.459-.266-2.792-1-4z"/><path style="opacity:1" fill="#e9a77d" d="M241.5 345.5v1c-3.083 1.525-6.416 2.525-10 3 2.237-3.593 5.57-4.926 10-4z"/><path style="opacity:.125" fill="#ffdbc3" d="M247.5 344.5c-1.714 1.238-3.714 1.905-6 2v-1a19.22 19.22 0 0 1 6-1z"/><path style="opacity:.553" fill="#f7dd92" d="M122.5 346.5c2.333.333 3.667 1.667 4 4-1.667-1-3-2.333-4-4z"/><path style="opacity:1" fill="#31a4b3" d="M311.5 354.5v-1c-.165-3.35.002-6.683.5-10a68.555 68.555 0 0 1 4.5 14c-.346 1.196-.846 1.196-1.5 0a4.934 4.934 0 0 1-.5-3h-3z"/><path style="opacity:.541" fill="#b0dddb" d="M330.5 342.5c3.362 2.382 3.695 5.049 1 8a24.93 24.93 0 0 0-1-8z"/><path style="opacity:.337" fill="#fdedcc" d="M146.5 348.5a6.547 6.547 0 0 1 3 3c-2 0-3-1-3-3z"/><path style="opacity:.22" fill="#f9cfb3" d="M231.5 349.5c-1.714 1.238-3.714 1.905-6 2v-1a19.22 19.22 0 0 1 6-1z"/><path style="opacity:1" fill="#4baeb5" d="M330.5 342.5a24.93 24.93 0 0 1 1 8v2c-9.816 2.523-12.816-.81-9-10 2.787-2.513 5.453-2.513 8 0z"/><path style="opacity:1" fill="#e8a95e" d="M179.5 341.5c2.142 2.265 3.809 4.932 5 8a835.698 835.698 0 0 0 6 5h-2c-2.698-.345-4.698-1.678-6-4a49.783 49.783 0 0 1-3-9z"/><path style="opacity:.522" fill="#b2d3d0" d="M303.5 355.5h-1c-.025-2.679-1.358-4.012-4-4h-3c4.885-3.474 7.552-2.14 8 4z"/><path style="opacity:.459" fill="#f8dca4" d="M149.5 351.5c1.667 1 3 2.333 4 4h-2c-1.1-1.105-1.767-2.438-2-4z"/><path style="opacity:1" fill="#638678" d="M298.5 351.5c2.642-.012 3.975 1.321 4 4h-1l-3-4z"/><path style="opacity:.431" fill="#fbe3a3" d="M126.5 350.5c3.928 3.588 7.928 7.255 12 11v1c-4.979-2.979-8.979-6.979-12-12z"/><path style="opacity:1" fill="#de7740" d="M225.5 350.5v1c-4.296.93-8.63 1.763-13 2.5-1.566.608-2.9 1.442-4 2.5-5.93.372-11.597-.295-17-2h1c5.676.166 11.343-.001 17-.5 5.099-2.038 10.433-3.205 16-3.5z"/><path style="opacity:.725" fill="#f3bea0" d="M225.5 351.5c-5.367 2.428-11.034 4.095-17 5 1.1-1.058 2.434-1.892 4-2.5 4.37-.737 8.704-1.57 13-2.5z"/><path style="opacity:1" fill="#e3a882" d="M295.5 351.5h3l3 4a621.124 621.124 0 0 1-6-3c-1.922.301-3.588.967-5 2-3.228.914-6.561 1.247-10 1 4.778-1.779 9.778-3.113 15-4z"/><path style="opacity:1" fill="#de773d" d="M301.5 355.5h1c.03.997-.47 1.664-1.5 2-3.455 1.028-6.621 2.361-9.5 4h-8c3.768-.576 7.435-1.742 11-3.5 1.141-.741 1.141-1.575 0-2.5-1.189-.929-2.522-1.262-4-1 1.412-1.033 3.078-1.699 5-2a621.124 621.124 0 0 0 6 3z"/><path style="opacity:.365" fill="#f5dba7" d="M153.5 355.5c1.527-.073 2.527.594 3 2-1.679.215-2.679-.452-3-2z"/><path style="opacity:.345" fill="#f6cbaa" d="M188.5 354.5h3c5.403 1.705 11.07 2.372 17 2-4.816 1.15-9.816 1.316-15 .5-1.991-.374-3.658-1.207-5-2.5z"/><path style="opacity:.361" fill="#f6c7ac" d="m246.5 364.5-4-3c-5.058-4.058-10.724-5.058-17-3 6.15-2.887 12.15-2.387 18 1.5 1.641 1.129 2.641 2.629 3 4.5z"/><path style="opacity:.553" fill="#f7cfae" d="M280.5 355.5c-2.015 1.424-4.348 2.09-7 2 2.015-1.424 4.348-2.09 7-2z"/><path style="opacity:.639" fill="#f9ceaf" d="M273.5 357.5c-2.015 1.424-4.348 2.09-7 2 2.015-1.424 4.348-2.09 7-2z"/><path style="opacity:.588" fill="#f5c5aa" d="m225.5 358.5-8 8c1.333-4 4-6.667 8-8z"/><path style="opacity:.196" fill="#f7d3b9" d="M302.5 355.5h1c.219 1.175-.114 2.175-1 3a44.89 44.89 0 0 1-11 3c2.879-1.639 6.045-2.972 9.5-4 1.03-.336 1.53-1.003 1.5-2z"/><path style="opacity:.078" fill="#fce8b5" d="M158.5 359.5c1.527-.073 2.527.594 3 2-1.527.073-2.527-.594-3-2z"/><path style="opacity:1" fill="#e9a545" d="M151.5 355.5h2c.321 1.548 1.321 2.215 3 2 1 .333 1.667 1 2 2 .473 1.406 1.473 2.073 3 2h1v2l-6-1c-.246-2.97-1.912-4.303-5-4v-3z"/><path style="opacity:1" fill="#eb7333" d="M290.5 354.5c1.478-.262 2.811.071 4 1 1.141.925 1.141 1.759 0 2.5-3.565 1.758-7.232 2.924-11 3.5-1.653.16-2.986.826-4 2-.342.838-1.008 1.172-2 1-3.198-.536-5.865.131-8 2a72.032 72.032 0 0 0-11 1 4.934 4.934 0 0 1 .5-3 72.98 72.98 0 0 0 6.5-4c.667 0 1-.333 1-1 2.652.09 4.985-.576 7-2 2.652.09 4.985-.576 7-2 3.439.247 6.772-.086 10-1z"/><path style="opacity:.729" fill="#f8d399" d="M138.5 362.5a11.743 11.743 0 0 1 5 3l2 3c-2.927-1.257-5.261-3.257-7-6z"/><path style="opacity:.914" fill="#eaa87b" d="M283.5 361.5h7c-2.015 1.424-4.348 2.09-7 2h-4c1.014-1.174 2.347-1.84 4-2z"/><path style="opacity:1" fill="#29b3c4" d="M327.5 357.5c.71 2.246 1.21 4.58 1.5 7 1.079-1.894 2.413-2.227 4-1 1.458-4.243 3.791-4.91 7-2 1.597-1.385 3.43-2.051 5.5-2 1.238.31 1.238.81 0 1.5a17.758 17.758 0 0 1-7 1.5 21.435 21.435 0 0 1-1 7h-5a115.38 115.38 0 0 0-13-2l-2-3c1.704-2.286 3.037-4.952 4-8a11.988 11.988 0 0 0 6 1z"/><path style="opacity:.259" fill="#fbdfb1" d="M162.5 361.5a21.614 21.614 0 0 1 5 4 16.339 16.339 0 0 1-5-2v-2z"/><path style="opacity:.475" fill="#f8d0b8" d="M266.5 359.5c0 .667-.333 1-1 1a87.925 87.925 0 0 1-9 2v5c-1.293-1.864-1.293-3.864 0-6a44.36 44.36 0 0 1 10-2z"/><path style="opacity:.271" fill="#feddcc" d="M279.5 363.5h4c-1.714 1.238-3.714 1.905-6 2v-1c.992.172 1.658-.162 2-1z"/><path style="opacity:1" fill="#77cad5" d="M351.5 356.5a98.203 98.203 0 0 1-14 13 21.435 21.435 0 0 0 1-7 17.758 17.758 0 0 0 7-1.5c1.238-.69 1.238-1.19 0-1.5 1.251-2.989 3.251-3.989 6-3z"/><path style="opacity:1" fill="#d87a4a" d="M265.5 360.5a72.98 72.98 0 0 1-6.5 4 4.934 4.934 0 0 0-.5 3 72.032 72.032 0 0 1 11-1v1h-1c-4.059 1.064-8.059 1.064-12 0v-5a87.925 87.925 0 0 0 9-2z"/><path style="opacity:.994" fill="#ecaa84" d="M277.5 364.5v1c-2.493 1.274-5.159 1.94-8 2v-1c2.135-1.869 4.802-2.536 8-2z"/><path style="opacity:1" fill="#eba550" d="M143.5 365.5a8.43 8.43 0 0 1 4 .5c2.195 3.359 4.862 6.193 8 8.5l1 2c-2.353-.84-4.353-2.174-6-4-1.085-2.087-2.751-3.42-5-4l-2-3z"/><path style="opacity:.745" fill="#f5c19b" d="M236.5 364.5c2.98-.259 4.813 1.074 5.5 4 .498 2.982.665 5.982.5 9-1.667 1-3 2.333-4 4h-2c6.645-5.762 6.645-11.428 0-17z"/><path style="opacity:1" fill="#f69a25" d="M151.5 355.5v3c3.088-.303 4.754 1.03 5 4l6 1a16.339 16.339 0 0 0 5 2l1 2c-3.882 3.109-8.216 5.442-13 7-3.138-2.307-5.805-5.141-8-8.5a8.43 8.43 0 0 0-4-.5 11.743 11.743 0 0 0-5-3v-1c2.583-1.485 3.916-3.818 4-7 1.89.203 3.39-.463 4.5-2 .918 1.876 2.418 2.876 4.5 3z"/><path style="opacity:.137" fill="#fedec7" d="M167.5 365.5c1.527-.073 2.527.594 3 2h-2l-1-2z"/><path style="opacity:1" fill="#9ea77c" d="m317.5 364.5 2 3h-2c-.709-.904-1.709-1.237-3-1 .473-1.406 1.473-2.073 3-2z"/><path style="opacity:1" fill="#88ad7a" d="M319.5 367.5a115.38 115.38 0 0 1 13 2c0 .667-.333 1-1 1-4.249-.421-8.249-1.421-12-3z"/><path style="opacity:.561" fill="#f8d5a4" d="M145.5 368.5c2.249.58 3.915 1.913 5 4-2.249-.58-3.915-1.913-5-4z"/><path style="opacity:.314" fill="#f3cfb7" d="M256.5 367.5c3.941 1.064 7.941 1.064 12 0-3.663 1.916-7.663 2.916-12 3v-3z"/><path style="opacity:.812" fill="#bad1b9" d="M332.5 369.5h4c-1.085 2.087-2.751 3.42-5 4v-3c.667 0 1-.333 1-1z"/><path style="opacity:1" fill="#e77333" d="M242.5 361.5c.531 2.044 1.698 3.711 3.5 5 .498 3.317.665 6.65.5 10-1.459-.067-2.792.266-4 1a40.914 40.914 0 0 0-.5-9c-.687-2.926-2.52-4.259-5.5-4-2.804-1.138-5.804-1.305-9-.5-1.641 1.129-2.641 2.629-3 4.5-1.398 1.277-2.064 2.943-2 5-.16 1.855.507 3.188 2 4a5.727 5.727 0 0 0 1 3c.065.438-.101.772-.5 1a78.993 78.993 0 0 1-6.5-3c-.923-3.564-1.256-7.231-1-11v-1l8-8c6.276-2.058 11.942-1.058 17 3z"/><path style="opacity:1" fill="#ed712d" d="M230.5 368.5c1.915-.284 3.581.049 5 1a21.435 21.435 0 0 1 1 7c-6.748 1.001-8.748-1.666-6-8z"/><path style="opacity:.82" fill="#e9b089" d="M237.5 376.5a18.453 18.453 0 0 0-.5-6c-.383-.556-.883-.889-1.5-1-1.419-.951-3.085-1.284-5-1l-3 2c1.457-3.549 4.123-4.716 8-3.5 3.969 2.687 4.636 5.854 2 9.5z"/><path style="opacity:.224" fill="#fbd6ba" d="M236.5 364.5c-4.771-.758-8.771.575-12 4 .359-1.871 1.359-3.371 3-4.5 3.196-.805 6.196-.638 9 .5z"/><path style="opacity:.751" fill="#edbc9a" d="M247.5 366.5c2.612 5.746 2.112 11.413-1.5 17-.708.881-1.542 1.547-2.5 2a17.341 17.341 0 0 1 3.5-7c.499-3.986.666-7.986.5-12z"/><path style="opacity:1" fill="#e4b95a" d="M317.5 367.5h2c3.751 1.579 7.751 2.579 12 3v3a24.766 24.766 0 0 1-8 5c1.008-1.839 2.508-3.172 4.5-4a8.43 8.43 0 0 0 .5-4c-3.989.384-7.655-.283-11-2v-1z"/><path style="opacity:.525" fill="#f1c8ab" d="M217.5 367.5c-.256 3.769.077 7.436 1 11v2c-1.533-2.134-2.2-4.634-2-7.5.006-2.033.339-3.866 1-5.5z"/><path style="opacity:.361" fill="#f0c3a6" d="M227.5 370.5c-.326 6.326 2.674 8.659 9 7-.462 1.38-1.462 2.047-3 2-6.228-.518-8.228-3.518-6-9z"/><path style="opacity:.839" fill="#f0c389" d="M314.5 366.5c1.291-.237 2.291.096 3 1v1h-1a8.43 8.43 0 0 0-4 .5 104.31 104.31 0 0 1-33 12.5 268.335 268.335 0 0 0 35-15z"/><path style="opacity:1" fill="#e67435" d="M168.5 367.5h2a57.143 57.143 0 0 0 15 9 128.323 128.323 0 0 1-12-1c.17-1.322-.163-2.489-1-3.5a16.242 16.242 0 0 0-8 0c-3.6 1.641-3.934 3.807-1 6.5h-4c-.473-1.406-1.473-2.073-3-2l-1-2c4.784-1.558 9.118-3.891 13-7z"/><path style="opacity:.298" fill="#f8cdb2" d="M170.5 367.5a8702.109 8702.109 0 0 1 21 10 19.22 19.22 0 0 1-6-1 57.143 57.143 0 0 1-15-9z"/><path style="opacity:.812" fill="#f4af92" d="M224.5 368.5c-1.333 3-1.333 6 0 9-1.493-.812-2.16-2.145-2-4-.064-2.057.602-3.723 2-5z"/><path style="opacity:1" fill="#db763f" d="M230.5 368.5c-2.748 6.334-.748 9.001 6 8a21.435 21.435 0 0 0-1-7c.617.111 1.117.444 1.5 1 .495 1.973.662 3.973.5 6 0 .667-.333 1-1 1-6.326 1.659-9.326-.674-9-7l3-2z"/><path style="opacity:.322" fill="#f8cdb2" d="M156.5 376.5c1.527-.073 2.527.594 3 2-1.527.073-2.527-.594-3-2z"/><path style="opacity:.451" fill="#f7c8a8" d="M191.5 377.5c1.903.296 3.57.963 5 2-2.198.38-3.865-.287-5-2z"/><path style="opacity:.925" fill="#e8a882" d="M159.5 378.5h4c3.114 1.88 5.78 4.213 8 7-4.524-1.543-8.524-3.877-12-7z"/><path style="opacity:1" fill="#f0712b" d="M185.5 376.5c4.512 3.749 9.845 6.082 16 7a251.9 251.9 0 0 1-22 4h-4c-1.653-.16-2.986-.826-4-2-2.22-2.787-4.886-5.12-8-7-2.934-2.693-2.6-4.859 1-6.5a16.242 16.242 0 0 1 8 0c.837 1.011 1.17 2.178 1 3.5 3.981.521 7.981.854 12 1z"/><path style="opacity:1" fill="#e68c3f" d="m242.5 361.5 4 3c.838.342 1.172 1.008 1 2a72.367 72.367 0 0 1-.5 12 17.341 17.341 0 0 0-3.5 7h-2c1.902-3.997.902-5.33-3-4 1-1.667 2.333-3 4-4 1.208-.734 2.541-1.067 4-1a50.464 50.464 0 0 0-.5-10c-1.802-1.289-2.969-2.956-3.5-5z"/><path style="opacity:.357" fill="#fae992" d="M323.5 378.5c-1.159 1.75-2.826 2.75-5 3 .901-2.227 2.567-3.227 5-3z"/><path style="opacity:1" fill="#df753a" d="M185.5 376.5a19.22 19.22 0 0 0 6 1c1.135 1.713 2.802 2.38 5 2a38.923 38.923 0 0 0 8 4h-3c-6.155-.918-11.488-3.251-16-7z"/><path style="opacity:.067" fill="#fbe1a9" d="M224.5 377.5c3.229 3.425 7.229 4.758 12 4-3.783 1.507-7.45 1.173-11-1a5.727 5.727 0 0 1-1-3z"/><path style="opacity:1" fill="#ea9339" d="M218.5 378.5a78.993 78.993 0 0 0 6.5 3c.399-.228.565-.562.5-1 3.55 2.173 7.217 2.507 11 1h2c-1.556 2.488-3.889 3.488-7 3-2.141-.113-3.975-.78-5.5-2-1.011.837-2.178 1.17-3.5 1l-4-2v-3z"/><path style="opacity:.569" fill="#f3cda0" d="M196.5 379.5a998.399 998.399 0 0 1 21.5 5c1.683-.676 1.85-1.676.5-3l4 2v1c-1.464.66-3.131.993-5 1a93.548 93.548 0 0 0-13-2 38.923 38.923 0 0 1-8-4z"/><path style="opacity:1" fill="#f59426" d="M241.5 385.5h-1c-1.276.886-1.276 1.886 0 3 1.606.577 3.272.91 5 1 5.322-.61 10.656-1.11 16-1.5 1.991-.374 3.658-1.207 5-2.5a76.926 76.926 0 0 0 10-1c-.111.617-.444 1.117-1 1.5a39.635 39.635 0 0 0-12 3l4 1c-2.269.758-4.436.591-6.5-.5a26.67 26.67 0 0 1-6.5 1.5c.457.414.791.914 1 1.5l-10 2c4.03.6 7.697 1.933 11 4a585.14 585.14 0 0 1 25-3l-2 2a373.945 373.945 0 0 0-19 2c-12.777 1.512-25.444 1.179-38-1a39.445 39.445 0 0 1-5-2.5c2.386-.284 3.052-1.284 2-3-2.951-.096-5.618-.929-8-2.5 3.404-2.473 7.07-2.639 11-.5-2.405 1.615-2.405 2.281 0 2 1.314-2.605 1.314-5.105 0-7.5v-1c1.322.17 2.489-.163 3.5-1 1.525 1.22 3.359 1.887 5.5 2 3.111.488 5.444-.512 7-3 3.902-1.33 4.902.003 3 4z"/><path style="opacity:1" fill="#ecb879" d="M279.5 381.5c-.6 1.4-1.6 2.4-3 3-3.307.551-6.64.884-10 1h-6a411.142 411.142 0 0 1 19-4z"/><path style="opacity:1" fill="#f7d97d" d="M318.5 381.5c-11.802 8.051-24.802 13.384-39 16l2-2a5.727 5.727 0 0 1 3-1 589.48 589.48 0 0 0 34-13z"/><path style="opacity:1" fill="#fbbf1e" d="M316.5 368.5h1c3.345 1.717 7.011 2.384 11 2a8.43 8.43 0 0 1-.5 4c-1.992.828-3.492 2.161-4.5 4-2.433-.227-4.099.773-5 3a589.48 589.48 0 0 1-34 13c7.608-7.756 16.275-14.256 26-19.5a43.296 43.296 0 0 1 6-6.5z"/><path style="opacity:.788" fill="#f6cca0" d="M175.5 387.5h4a22.755 22.755 0 0 1 5 4c-3.412-.575-6.412-1.908-9-4z"/><path style="opacity:1" fill="#e7983c" d="M240.5 385.5c2.071 1.309 4.571 1.975 7.5 2 4.427.106 8.594-.56 12.5-2h6c-1.342 1.293-3.009 2.126-5 2.5-5.344.39-10.678.89-16 1.5a17.376 17.376 0 0 1-5-1c-1.276-1.114-1.276-2.114 0-3z"/><path style="opacity:.353" fill="#f8d29c" d="M240.5 385.5h3c5.474.399 11.14.399 17 0-3.906 1.44-8.073 2.106-12.5 2-2.929-.025-5.429-.691-7.5-2z"/><path style="opacity:1" fill="#f49529" d="M201.5 383.5h3a93.548 93.548 0 0 1 13 2c1.869-.007 3.536-.34 5-1 1.314 2.395 1.314 4.895 0 7.5-2.405.281-2.405-.385 0-2-3.93-2.139-7.596-1.973-11 .5 2.382 1.571 5.049 2.404 8 2.5 1.052 1.716.386 2.716-2 3a39.445 39.445 0 0 0 5 2.5h-7a116.21 116.21 0 0 1-12-2h-4c-4.646-2.477-9.646-4.144-15-5a22.755 22.755 0 0 0-5-4 251.9 251.9 0 0 0 22-4z"/><path style="opacity:1" fill="#f69424" d="M316.5 368.5a43.296 43.296 0 0 0-6 6.5c-9.725 5.244-18.392 11.744-26 19.5a5.727 5.727 0 0 0-3 1 585.14 585.14 0 0 0-25 3c-3.303-2.067-6.97-3.4-11-4l10-2a3.647 3.647 0 0 0-1-1.5 26.67 26.67 0 0 0 6.5-1.5c2.064 1.091 4.231 1.258 6.5.5l-4-1a39.635 39.635 0 0 1 12-3c.556-.383.889-.883 1-1.5 1.4-.6 2.4-1.6 3-3a104.31 104.31 0 0 0 33-12.5 8.43 8.43 0 0 1 4-.5z"/><path style="opacity:.569" fill="#fbe1af" d="M184.5 391.5c5.354.856 10.354 2.523 15 5-5.415-.694-10.415-2.36-15-5z"/><path style="opacity:.275" fill="#fee8bc" d="M199.5 396.5h4l3 2c-2.652.09-4.985-.576-7-2z"/><path style="opacity:.792" fill="#f2c377" d="M203.5 396.5a116.21 116.21 0 0 0 12 2v1h-4c-1.792.134-3.458-.199-5-1l-3-2z"/><path style="opacity:.365" fill="#fde2ae" d="M211.5 399.5h4c3.54.253 6.873.919 10 2-4.934.271-9.6-.396-14-2z"/><path style="opacity:.959" fill="#e09b4c" d="M215.5 399.5v-1h7c12.556 2.179 25.223 2.512 38 1-1.452.802-3.118 1.302-5 1.5-9.994.5-19.994.666-30 .5-3.127-1.081-6.46-1.747-10-2z"/><path style="opacity:.396" fill="#fcdfb5" d="M279.5 397.5c-7.008 2.451-14.341 3.951-22 4.5-10.841.825-21.508.659-32-.5 10.006.166 20.006 0 30-.5 1.882-.198 3.548-.698 5-1.5a373.945 373.945 0 0 1 19-2z"/></svg>